<svg
   version="1.1"
   id="svg78"
   width="2569.3333"
   height="938.66669"
   viewBox="0 0 2569.3333 938.66669">
  <defs
     id="defs82" />
  <g
     id="g86">
    <g
       id="g90"
       transform="translate(1.4690336,-2.9380618)">
      <path
         style="fill:#fb9e3e;stroke-width:1.33333"
         d="m 1949.8545,939.27142 c 0.3855,-1.28333 58.3572,-212.01474 128.8263,-468.29201 70.4689,-256.27728 128.3038,-466.1370857 128.5218,-466.3551401 0.2182,-0.2180543 16.5666,-0.2366551 36.33,-0.041335 l 35.9335,0.3551268 -129.3196,468.3333483 -129.3196,468.33334 h -35.8367 c -33.5082,0 -35.791,-0.1516 -35.1357,-2.33333 z M 394.66666,815.70242 c -25.70912,-7.12948 -46.12683,-27.2731 -54.21573,-53.48795 -2.33283,-7.56028 -2.45094,-17.58092 -2.45094,-207.94306 0,-190.36239 0.11814,-200.38551 2.45162,-208.00001 4.00698,-13.0755 10.26017,-23.39224 20.20816,-33.34022 9.94798,-9.94799 20.26472,-16.20118 33.34022,-20.20816 7.0206,-2.15148 12.9786,-2.45162 48.66667,-2.45162 29.87384,0 42.61292,0.4827 48,1.81874 8.87163,2.20025 22.99825,8.86437 26.13269,12.32789 5.96753,6.59404 5.83165,8.93024 6.19284,-106.47996 l 0.34113,-109.000006 h 38 38 l 0.33574,364.333346 0.33574,364.33334 -99.66907,-0.1192 c -75.2396,-0.09 -101.13971,-0.52707 -105.66907,-1.78313 z M 521.99999,554.93808 V 359.60474 l -53,-0.34863 -53,-0.34864 v 195.12642 c 0,107.31952 0.40687,195.53328 0.90415,196.03056 0.49728,0.49728 24.34728,0.74728 53,0.55556 l 52.09585,-0.3486 z M 742.25032,815.6456 c -25.54646,-7.19417 -49.06609,-31.69964 -54.12977,-56.39865 -1.17369,-5.72492 -1.46899,-65.51212 -1.177,-238.30888 l 0.38977,-230.66667 35.33334,-0.37458 c 19.43333,-0.20603 36.68162,-0.0451 38.32954,0.35778 l 2.99621,0.73238 0.33712,229.64221 0.33712,229.64222 h 55.33334 55.33333 l 0.33712,-229.64222 0.33712,-229.64221 2.99621,-0.73238 c 1.64792,-0.40281 18.89622,-0.56381 38.32955,-0.35778 l 35.33333,0.37458 0.33664,263.68958 0.33664,263.68957 -33.58585,-0.35623 -33.58587,-0.35624 -0.96278,-4 c -0.52954,-2.2 -1.68812,-10.17642 -2.57464,-17.72538 -0.88651,-7.54897 -2.06579,-13.54897 -2.62062,-13.33334 -0.55482,0.21563 -3.93409,4.29205 -7.50948,9.05872 -7.72757,10.30231 -19.48706,18.66084 -32.24297,22.91796 -8.36979,2.79332 -11.49307,2.99762 -50.25773,3.28744 -31.51099,0.2356 -42.85809,-0.1204 -47.74967,-1.49788 z m 347.28488,-1.33232 c -23.664,-7.66129 -42.902,-27.51935 -50.4169,-52.04187 -2.3335,-7.61449 -2.4516,-17.63761 -2.4516,-208 0,-190.36239 0.1181,-200.38551 2.4516,-208.00001 4.007,-13.0755 10.2601,-23.39224 20.2081,-33.34022 9.948,-9.94799 20.2647,-16.20118 33.3403,-20.20816 7.3158,-2.24195 13.7583,-2.45162 75.3333,-2.45162 66.0102,0 67.5167,0.0585 76.6666,2.97867 23.4832,7.49451 42.5169,25.71981 50.259,48.12456 3.018,8.73353 3.0744,9.91208 3.0744,64.23011 v 55.33333 l -37.6508,0.35407 -37.6508,0.35408 -0.3492,-51.02075 -0.3492,-51.02073 -53.6711,-0.34847 -53.6711,-0.34845 0.3378,195.68179 0.3377,195.6818 52.5783,0.34903 c 41.1774,0.27336 52.8098,-0.0157 53.6462,-1.33333 0.5874,-0.9253 1.0772,-23.13236 1.0884,-49.34903 l 0.02,-47.66667 h 38 38 v 50.38654 c 0,56.27014 -0.3101,58.8684 -9.0016,75.40836 -6.0869,11.58342 -19.5109,25.32199 -30.3809,31.09285 -15.6364,8.30134 -17.2895,8.45179 -92.1432,8.38594 -67.6964,-0.0596 -67.8236,-0.0648 -77.6057,-3.23182 z m 332.6089,1.26211 c -27.3555,-7.51097 -50.8676,-33.05932 -55.3781,-60.17382 -0.95,-5.71137 -1.3779,-22.61037 -1.1424,-45.13016 l 0.3764,-36 h 38.6666 38.6667 l 0.6667,38 0.6666,38 H 1489.3333 1534 l 0.2721,-49.33333 0.2721,-49.33334 -55.3549,-56.66666 C 1374.544,487.8129 1375.1568,488.52145 1369.9854,468.66715 c -2.8812,-11.06166 -2.8613,-107.84724 0.024,-120.08796 6.123,-25.96991 27.4323,-47.97348 54.1646,-55.92925 5.8693,-1.74678 16.6689,-2.23183 59.9601,-2.69307 60.0936,-0.64024 69.1529,0.197 84.7663,7.83391 12.1881,5.96154 29.048,22.52994 34.8046,34.2031 7.4195,15.04475 8.4192,23.15979 8.0012,64.94419 l -0.3736,37.33334 -37.2413,0.35485 c -28.9055,0.27541 -37.4812,-0.0231 -38.3129,-1.33333 -0.5894,-0.92851 -1.0808,-18.04628 -1.092,-38.0395 l -0.02,-36.35131 -44.3334,0.35131 -44.3333,0.35131 -0.3501,48.44809 -0.35,48.4481 52.35,53.38594 c 95.2458,97.13045 104.4145,106.8527 108.0678,114.59266 6.0183,12.75045 6.5047,19.08899 6.0202,78.45855 l -0.4516,55.33333 -3.5402,9.17234 c -8.929,23.13421 -29.7084,42.19123 -52.4682,48.11941 -10.754,2.80108 -122.9391,2.81139 -133.1338,0.012 z m 313.3333,0 c -27.3554,-7.51097 -50.8676,-33.05932 -55.3781,-60.17382 -0.95,-5.71137 -1.3779,-22.61037 -1.1424,-45.13016 l 0.3764,-36 H 1718 h 38.6666 l 0.6667,38 0.6667,38 h 44.6666 44.6667 l 0.2721,-49.33333 0.2722,-49.33334 -55.355,-56.66666 C 1687.8773,487.8129 1688.4901,488.52145 1683.3188,468.66715 c -2.8812,-11.06166 -2.8614,-107.84724 0.024,-120.08796 6.1229,-25.96991 27.4322,-47.97348 54.1645,-55.92925 5.8693,-1.74678 16.6689,-2.23183 59.9601,-2.69307 60.0936,-0.64024 69.153,0.197 84.7663,7.83391 12.1881,5.96154 29.048,22.52994 34.8047,34.2031 7.4194,15.04475 8.4192,23.15979 8.0012,64.94419 l -0.3736,37.33334 -37.2414,0.35485 c -28.9054,0.27541 -37.4812,-0.0231 -38.3129,-1.33333 -0.5893,-0.92851 -1.0808,-18.04628 -1.092,-38.0395 l -0.02,-36.35131 -44.3333,0.35131 -44.3334,0.35131 -0.3501,48.44809 -0.35,48.4481 52.35,53.38594 c 95.2459,97.13045 104.4145,106.8527 108.0679,114.59266 6.0182,12.75045 6.5046,19.08899 6.0201,78.45855 l -0.4516,55.33333 -3.5401,9.17234 c -8.9291,23.13421 -29.7084,42.19123 -52.4683,48.11941 -10.754,2.80108 -122.9391,2.81139 -133.1337,0.012 z M 92.20315,648.37988 C 42.081552,591.24585 1.1190729,543.99845 1.1754191,543.38562 1.3342656,541.65802 181.60482,337.55326 184.19725,336.16583 c 3.13935,-1.68012 94.0739,-1.61305 95.11418,0.0701 0.44119,0.71386 -4.52137,7.16386 -11.02792,14.33334 -6.50653,7.16948 -48.23209,53.12861 -92.72346,102.13143 -44.49136,49.00282 -80.893386,89.84301 -80.893386,90.756 0,0.91297 41.691436,47.81977 92.647626,104.23732 50.9562,56.41755 92.6562,103.02736 92.66666,103.57736 0.0107,0.55 -21.73096,0.99742 -48.31429,0.99424 l -48.33333,-0.005 L 92.20315,648.3803 Z m 2198.69905,101.9534 c 0.2371,-1.06597 41.2311,-47.05011 91.0978,-102.18698 49.8666,-55.13685 91.2074,-101.59341 91.8684,-103.23678 1.0768,-2.67751 -8.3264,-13.47894 -90.5068,-103.96454 -50.4396,-55.53714 -91.7804,-101.95842 -91.8684,-103.15842 -0.1447,-1.97524 4.2302,-2.21502 46.2065,-2.53248 l 46.3664,-0.35064 5.2351,5.01731 c 2.8793,2.75953 44.5518,49.64571 92.6056,104.19151 l 87.3704,99.17419 -3.4932,4.15915 c -1.9214,2.28753 -43.1063,49.30914 -91.5223,104.49248 l -88.0289,100.33333 h -47.8808 c -41.1903,0 -47.8207,-0.27082 -47.4498,-1.93813 z"
         id="path94" />
      <path
         style="fill:#2a2a29;stroke-width:1.33333"
         d="m 405.01295,818.71416 c -30.53073,-4.08304 -57.75432,-29.04815 -64.04445,-58.73131 -2.82858,-13.348 -2.85312,-393.88966 -0.0263,-407.22714 5.32405,-25.11973 25.78973,-47.88737 50.24629,-55.89796 9.5559,-3.12997 10.99072,-3.21793 52.49111,-3.21793 40.30264,0 43.1838,0.16314 52,2.94458 7.86969,2.48282 16.14442,6.93594 24.17182,13.00826 0.93515,0.7074 2.17906,0.80756 2.76423,0.22258 0.58517,-0.58497 1.22428,-49.91374 1.42025,-109.61951 l 0.3563,-108.555919 h 37.31277 37.31277 l -0.33574,363.666679 -0.33575,363.66667 -94.66667,0.13798 c -52.06666,0.0759 -96.46666,-0.1028 -98.66666,-0.39698 z m 117.95309,-66.98668 c 1.49487,-2.79317 2.01933,-383.56672 0.53593,-389.10265 l -0.80788,-3.01499 -53.50723,0.34832 -53.50724,0.34832 -0.33779,195.19136 c -0.24773,143.15137 0.0624,195.67355 1.16325,197 1.21655,1.46584 11.31723,1.80865 53.29088,1.80865 49.83848,0 51.84184,-0.0972 53.17008,-2.57901 z m 227.73143,66.61084 c -27.86612,-5.02561 -51.63711,-25.85975 -60.06391,-52.64312 l -2.95395,-9.38871 V 524.97315 293.63982 h 37.33334 37.33333 l 0.33714,228.53465 c 0.24523,166.22246 0.74418,229.02509 1.82994,230.33334 1.20797,1.45551 11.86029,1.79868 55.83292,1.79868 43.97262,0 54.62494,-0.34317 55.83292,-1.79868 1.08576,-1.30825 1.5847,-64.11088 1.82993,-230.33334 l 0.33715,-228.53465 h 37.33333 37.33333 l 0.33668,261.19268 c 0.24743,191.95242 -0.0609,261.6718 -1.16325,263.00001 -1.18401,1.42664 -8.07135,1.80732 -32.6986,1.80732 -36.47111,0 -32.72383,2.06069 -35.15689,-19.33333 -1.7091,-15.02807 -2.55662,-19.34095 -3.79582,-19.31638 -0.47049,0.009 -2.95545,3.38048 -5.52212,7.49145 -8.31017,13.31025 -21.83092,22.86625 -39.41726,27.85879 -6.29464,1.78698 -15.15331,2.33839 -43.2494,2.69211 -19.43334,0.24467 -38.17531,-0.0677 -41.64881,-0.69415 z m 352.98213,0.4112 c -2.2,-0.31366 -7.3,-1.49488 -11.3333,-2.62493 -26.1581,-7.32891 -48.8483,-32.34299 -53.2357,-58.68794 -1.1028,-6.62206 -1.4166,-63.33846 -1.1424,-206.46349 l 0.3781,-197.33334 3.5173,-9.62136 c 8.8811,-24.29384 31.0538,-43.91511 55.473,-49.08976 13.2688,-2.81179 128.9271,-2.76796 142.343,0.0539 26.1197,5.49399 49.2273,27.53655 55.9584,53.37927 1.6678,6.40299 2.0416,17.55637 2.0416,60.9125 v 53.07429 l -37,-0.35443 -37,-0.35442 -0.6667,-50.66667 -0.6666,-50.66671 h -54 -54 l -0.3378,195.19135 c -0.2494,144.10751 0.058,195.66866 1.1758,197.01515 1.243,1.49766 10.9598,1.76148 54.3378,1.47532 l 52.8242,-0.34842 0.3504,-47.88396 c 0.2413,-32.97843 0.8165,-48.44557 1.8477,-49.68811 1.204,-1.45075 8.4483,-1.73466 36.9829,-1.44938 l 35.4856,0.35478 v 54 54 l -3.6045,8.41024 c -9.5032,22.17349 -26.1948,37.49876 -49.0621,45.04604 -6.634,2.18951 -13.5008,2.44276 -72,2.65536 -35.5667,0.12934 -66.4667,-0.0216 -68.6667,-0.33528 z m 326.4623,-0.52493 c -23.0888,-4.00675 -44.6791,-19.85707 -54.962,-40.34978 -7.5998,-15.14544 -8.2464,-20.3345 -7.8544,-63.01528 l 0.3541,-38.55304 h 37.3333 37.3334 l 0.3545,37.93443 c 0.2647,28.3094 0.7721,38.19961 2,38.97959 1.9172,1.21776 86.4036,1.47884 89.5364,0.27666 1.8705,-0.7178 2.1091,-6.38512 2.1091,-50.12026 v -49.31095 l -38.4791,-39.5464 c -21.1636,-21.75052 -55.1063,-56.6464 -75.4283,-77.5464 -20.3221,-20.90001 -38.7676,-40.5969 -40.99,-43.77089 -2.2225,-3.17397 -5.6297,-9.47397 -7.5717,-14 l -3.5309,-8.22912 v -59.33333 c 0,-54.64294 0.1997,-59.94223 2.527,-67.03578 6.983,-21.28348 27.345,-41.06561 49.4176,-48.01028 9.1054,-2.8648 11.1794,-2.95394 68.722,-2.95394 58.5387,0 59.4528,0.0413 68.2539,3.08228 23.73,8.19928 43.5121,29.36701 49.6339,53.11017 1.6914,6.56025 2.1122,15.92424 2.1122,47 v 38.80755 h -37.3125 -37.3127 l -0.354,-37.66667 -0.3541,-37.66667 -44.8399,-0.35088 -44.84,-0.35086 -0.8085,3.01753 c -1.0813,4.03557 -0.8164,91.58216 0.288,95.16002 0.4769,1.54502 35.0244,37.6976 76.7721,80.33907 41.7478,42.64146 77.6078,80.07736 79.6887,83.19086 2.0809,3.11352 4.9737,9.47414 6.4283,14.13472 2.4594,7.88051 2.6446,12.36499 2.6446,64.05321 0,45.60557 -0.3664,56.986 -2.0416,63.41761 -6.0857,23.36485 -25.2321,43.84704 -49.1557,52.58524 l -9.4693,3.45875 -56.6667,0.22761 c -31.1667,0.1252 -59.7587,-0.30896 -63.5377,-0.96477 z m 313.3333,0 c -23.0888,-4.00675 -44.6791,-19.85707 -54.962,-40.34978 -7.5997,-15.14544 -8.2464,-20.3345 -7.8544,-63.01528 l 0.3541,-38.55304 h 37.3334 37.3333 l 0.3545,37.93443 c 0.2647,28.3094 0.7722,38.19961 2,38.97959 1.9172,1.21776 86.4036,1.47884 89.5364,0.27666 1.8706,-0.7178 2.1091,-6.38512 2.1091,-50.12026 v -49.31095 l -38.4791,-39.5464 c -21.1636,-21.75052 -55.1062,-56.6464 -75.4282,-77.5464 -20.3222,-20.90001 -38.7676,-40.5969 -40.99,-43.77089 -2.2226,-3.17397 -5.6298,-9.47397 -7.5718,-14 l -3.5309,-8.22912 v -59.33333 c 0,-54.64294 0.1997,-59.94223 2.5271,-67.03578 6.9829,-21.28348 27.3449,-41.06561 49.4176,-48.01028 9.1053,-2.8648 11.1793,-2.95394 68.722,-2.95394 58.5386,0 59.4528,0.0413 68.2538,3.08228 23.73,8.19928 43.5122,29.36701 49.6339,53.11017 1.6915,6.56025 2.1123,15.92424 2.1123,47 v 38.80755 h -37.3126 -37.3126 l -0.354,-37.66667 -0.3542,-37.66667 -44.8398,-0.35088 -44.84,-0.35086 -0.8086,3.01753 c -1.0813,4.03557 -0.8164,91.58216 0.288,95.16002 0.477,1.54502 35.0244,37.6976 76.7722,80.33907 41.7477,42.64146 77.6077,80.07736 79.6886,83.19086 2.081,3.11352 4.9738,9.47414 6.4283,14.13472 2.4595,7.88051 2.6447,12.36499 2.6447,64.05321 0,45.60557 -0.3664,56.986 -2.0416,63.41761 -6.0858,23.36485 -25.2322,43.84704 -49.1558,52.58524 l -9.4693,3.45875 -56.6667,0.22761 c -31.1666,0.1252 -59.7586,-0.30896 -63.5377,-0.96477 z"
         id="path92" />
    </g>
  </g>
</svg>
