<?xml version="1.0" standalone="no"?>
<!DOCTYPE svg PUBLIC "-//W3C//DTD SVG 20010904//EN"
 "http://www.w3.org/TR/2001/REC-SVG-20010904/DTD/svg10.dtd">
<svg version="1.0" xmlns="http://www.w3.org/2000/svg"
 width="2048.000000pt" height="2048.000000pt" viewBox="0 0 2048.000000 2048.000000"
 preserveAspectRatio="xMidYMid meet">
<metadata>
Created by potrace 1.11, written by Peter Selinger 2001-2013
</metadata>
<g transform="translate(0.000000,2048.000000) scale(0.100000,-0.100000)"
fill="#000000" stroke="none">
<path d="M14407 17612 c-9 -2 -17 -9 -18 -15 -2 -29 -10 -61 -19 -72 -5 -7 -8
-14 -5 -17 2 -2 -6 -39 -19 -81 -13 -42 -22 -77 -19 -77 3 0 1 -6 -5 -12 -5
-7 -13 -34 -17 -60 -4 -27 -10 -48 -14 -48 -7 0 -12 -23 -15 -67 0 -13 -4 -23
-7 -23 -6 0 -19 -51 -20 -77 -1 -5 -5 -14 -11 -20 -6 -7 -8 -13 -5 -13 3 0 -5
-35 -18 -77 -13 -42 -22 -80 -19 -85 3 -4 0 -8 -7 -8 -7 0 -10 -3 -6 -6 3 -3
-1 -27 -9 -52 -18 -55 -15 -46 -39 -144 -10 -43 -23 -78 -27 -78 -5 0 -7 -4
-4 -8 3 -5 -2 -31 -10 -58 -9 -27 -18 -62 -21 -79 -3 -16 -9 -35 -14 -41 -5
-6 -6 -13 -3 -17 3 -3 1 -14 -5 -25 -5 -10 -12 -30 -14 -43 -3 -13 -11 -44
-18 -69 -7 -25 -13 -50 -15 -57 -1 -7 -12 -45 -23 -85 -12 -40 -26 -89 -32
-108 -6 -19 -12 -44 -14 -55 -2 -11 -4 -20 -5 -20 -1 0 -3 -7 -5 -15 -1 -8
-10 -40 -19 -71 -9 -31 -19 -65 -21 -75 -2 -11 -9 -37 -15 -59 -6 -22 -12 -46
-12 -52 -1 -7 -4 -13 -8 -13 -4 0 -7 -8 -7 -17 1 -10 -5 -38 -13 -63 -7 -25
-14 -48 -16 -52 -1 -5 -2 -9 -4 -10 -1 -2 -3 -10 -5 -19 -1 -10 -20 -77 -40
-150 -40 -143 -45 -166 -48 -189 -1 -8 -5 -17 -9 -20 -4 -3 -9 -19 -12 -35 -2
-17 -5 -30 -6 -30 -1 0 -3 -7 -5 -15 -12 -61 -41 -156 -48 -161 -5 -3 -8 -9
-7 -13 5 -13 -23 -127 -32 -132 -4 -3 -6 -10 -2 -15 3 -5 0 -16 -6 -24 -7 -8
-10 -15 -7 -15 3 0 1 -15 -4 -32 -6 -18 -12 -43 -15 -56 -2 -13 -11 -42 -18
-65 -8 -23 -17 -55 -21 -72 -5 -16 -9 -34 -11 -40 -4 -15 -13 -52 -18 -75 -3
-11 -7 -24 -10 -28 -3 -5 -7 -19 -10 -33 -3 -13 -17 -67 -32 -119 -14 -52 -27
-103 -27 -112 -1 -10 -4 -18 -7 -18 -4 0 -7 -6 -8 -12 -1 -15 -3 -25 -21 -88
-7 -25 -15 -52 -17 -60 -1 -8 -12 -45 -23 -83 -11 -37 -20 -71 -21 -75 0 -4
-6 -25 -12 -47 -16 -57 -17 -60 -33 -125 -2 -8 -4 -15 -5 -15 -1 0 -3 -7 -5
-15 -27 -105 -96 -356 -102 -370 -3 -8 -7 -22 -7 -30 -1 -8 -5 -20 -9 -26 -3
-7 -9 -29 -13 -50 -3 -22 -9 -43 -12 -49 -4 -5 -7 -14 -8 -20 -1 -5 -9 -37
-18 -70 -9 -33 -19 -70 -22 -82 -2 -12 -8 -33 -14 -47 -5 -13 -6 -27 -3 -30 4
-3 0 -6 -7 -6 -7 0 -11 -3 -8 -6 4 -3 -3 -38 -14 -77 -11 -40 -21 -79 -23 -87
-2 -8 -4 -15 -5 -15 -1 0 -3 -9 -5 -20 -2 -11 -11 -44 -20 -72 -9 -29 -18 -60
-20 -70 -2 -10 -4 -18 -5 -18 -2 0 -10 -36 -12 -57 -1 -10 -7 -18 -12 -18 -5
0 -7 -3 -4 -6 4 -3 2 -20 -4 -37 -5 -18 -11 -41 -13 -52 -3 -11 -18 -65 -34
-121 -17 -55 -32 -109 -34 -120 -1 -10 -6 -25 -11 -32 -4 -7 -6 -16 -3 -18 3
-3 -2 -22 -10 -42 -8 -20 -15 -38 -14 -39 0 -2 1 -4 0 -5 0 -2 -2 -10 -4 -18
-2 -8 -9 -33 -15 -55 -6 -22 -13 -47 -14 -55 -2 -8 -6 -22 -9 -30 -11 -32 -31
-115 -29 -122 1 -5 -3 -8 -8 -8 -5 0 -9 -3 -8 -7 3 -15 -14 -93 -20 -93 -4 0
-8 -10 -8 -22 -2 -25 -21 -104 -31 -128 -7 -17 -10 -27 -17 -55 -2 -11 -16
-63 -31 -115 -23 -83 -34 -121 -50 -180 -16 -59 -37 -137 -40 -150 -2 -8 -20
-73 -40 -145 -40 -144 -54 -193 -59 -215 -2 -8 -12 -42 -22 -75 -10 -33 -18
-68 -17 -77 0 -10 -3 -18 -8 -18 -4 0 -8 -8 -8 -17 0 -23 -5 -45 -14 -60 -4
-6 -8 -23 -9 -37 -1 -14 -6 -26 -10 -26 -4 0 -7 -3 -6 -7 2 -11 -13 -86 -20
-98 -3 -5 -7 -16 -8 -25 -1 -8 -7 -29 -12 -47 -6 -17 -8 -34 -4 -37 3 -3 1 -6
-5 -6 -5 0 -10 -6 -11 -12 -1 -23 -13 -72 -30 -128 -9 -30 -17 -58 -18 -62 -1
-5 -3 -11 -4 -15 -1 -5 -3 -12 -4 -18 -1 -5 -5 -17 -8 -25 -4 -8 -29 -103 -57
-210 -29 -107 -55 -202 -60 -210 -4 -8 -7 -25 -6 -37 1 -13 -1 -23 -5 -23 -7
0 -35 -109 -32 -122 1 -5 -2 -8 -6 -8 -5 0 -9 -6 -9 -12 0 -7 -6 -33 -12 -58
-6 -25 -14 -56 -17 -70 -3 -13 -9 -29 -15 -36 -5 -6 -6 -13 -4 -16 3 -3 0 -18
-6 -34 -6 -16 -13 -42 -16 -59 -3 -16 -9 -37 -14 -46 -4 -9 -11 -29 -13 -45
-3 -16 -10 -44 -15 -61 -5 -18 -7 -33 -3 -33 4 0 2 -4 -3 -8 -6 -4 -17 -32
-24 -62 -7 -30 -22 -84 -32 -119 -10 -34 -21 -73 -24 -85 -2 -11 -14 -55 -25
-96 -12 -41 -22 -79 -24 -85 -1 -5 -5 -16 -9 -22 -5 -7 -6 -13 -3 -13 2 0 0
-15 -5 -32 -15 -50 -80 -281 -84 -298 -1 -8 -8 -35 -15 -60 -7 -25 -13 -51
-13 -57 0 -7 -3 -13 -7 -13 -4 0 -7 -6 -7 -12 -1 -24 -14 -81 -21 -92 -3 -6
-7 -15 -9 -21 -7 -32 -14 -59 -37 -145 -28 -100 -36 -128 -39 -145 -2 -5 -6
-16 -10 -22 -5 -7 -6 -13 -2 -13 3 0 -1 -15 -9 -34 -8 -19 -12 -37 -9 -40 3
-2 1 -11 -3 -18 -5 -7 -9 -17 -11 -23 -19 -86 -36 -145 -42 -145 -3 0 -7 -10
-7 -22 -2 -31 -12 -71 -29 -121 -8 -22 -12 -44 -9 -49 3 -4 1 -8 -4 -8 -5 0
-9 -6 -10 -12 -1 -24 -25 -115 -84 -318 -12 -41 -22 -82 -23 -90 0 -9 -4 -21
-9 -28 -4 -6 -5 -12 -2 -12 3 0 -2 -16 -10 -35 -8 -19 -11 -35 -8 -35 4 0 1
-7 -6 -15 -6 -8 -9 -19 -6 -24 4 -5 2 -12 -3 -15 -5 -3 -12 -20 -15 -38 -3
-18 -9 -44 -12 -58 -3 -14 -7 -33 -7 -42 -1 -10 -4 -18 -8 -18 -7 0 -23 -58
-20 -73 1 -4 -3 -16 -8 -26 -6 -10 -13 -33 -16 -51 -3 -18 -10 -41 -16 -51 -5
-11 -7 -19 -3 -19 3 0 1 -7 -6 -15 -7 -8 -10 -15 -7 -15 3 0 1 -15 -4 -32 -10
-31 -17 -61 -22 -83 -2 -5 -5 -14 -8 -20 -3 -5 -5 -17 -4 -25 0 -8 -3 -17 -7
-20 -4 -3 -10 -23 -12 -43 -3 -21 -8 -42 -11 -47 -3 -6 -8 -18 -10 -27 -2 -10
-18 -70 -36 -133 -17 -63 -33 -122 -34 -130 -2 -8 -4 -16 -5 -17 -2 -2 -4 -7
-5 -13 -1 -5 -4 -12 -5 -15 -1 -3 -3 -13 -4 -22 -1 -10 -4 -22 -7 -28 -7 -10
-21 -70 -20 -80 1 -3 -5 -21 -13 -40 -9 -20 -15 -38 -16 -40 0 -3 0 -6 -1 -7
0 -2 -2 -10 -4 -18 -1 -8 -17 -67 -35 -130 -17 -63 -33 -124 -35 -135 -2 -11
-4 -21 -5 -22 -2 -2 -3 -6 -5 -10 -1 -5 -4 -15 -7 -23 -5 -13 -35 -124 -45
-167 -9 -38 -12 -48 -13 -50 -2 -2 -4 -7 -5 -13 -1 -5 -3 -11 -5 -12 -3 -4 -9
-29 -16 -68 -3 -19 -10 -40 -15 -46 -5 -7 -9 -16 -8 -20 1 -5 0 -11 -1 -14 -1
-3 -3 -12 -5 -20 -1 -8 -13 -51 -25 -95 -12 -44 -23 -84 -25 -90 -1 -5 -7 -28
-13 -50 -6 -22 -12 -43 -12 -47 0 -4 -7 -26 -15 -48 -8 -22 -14 -42 -14 -45
-1 -7 -12 -58 -17 -73 -2 -7 -4 -14 -4 -17 0 -3 -7 -23 -15 -45 -8 -22 -12
-40 -9 -40 2 0 -3 -16 -11 -36 -8 -20 -12 -40 -9 -45 3 -5 0 -9 -7 -9 -7 0
-10 -3 -7 -6 4 -3 2 -20 -3 -37 -6 -18 -12 -39 -14 -47 -2 -8 -24 -91 -50
-185 -26 -93 -49 -176 -51 -185 -7 -26 -34 -123 -40 -142 -5 -17 19 -18 559
-18 444 0 564 3 565 13 1 6 13 53 27 102 32 110 44 153 51 184 3 14 7 28 10
33 3 5 7 21 10 36 3 15 7 34 11 42 7 18 13 39 16 65 2 12 6 25 9 30 3 6 9 24
13 40 11 40 12 44 15 53 1 4 2 11 1 16 -1 4 4 14 10 22 6 8 9 14 6 14 -3 0 5
34 18 75 12 41 21 75 19 75 -1 0 6 26 17 58 11 31 19 57 19 57 -5 0 18 83 36
130 4 11 6 26 5 33 -1 8 3 20 10 28 6 8 9 17 6 20 -3 3 -1 18 5 33 15 40 108
372 112 402 2 15 7 32 10 38 4 6 9 23 12 37 3 14 11 44 19 67 8 22 12 44 9 49
-3 4 0 8 5 8 6 0 10 3 9 8 -1 4 4 32 12 62 8 30 15 58 16 63 1 4 2 8 4 10 1 1
3 9 5 17 2 8 8 30 14 48 5 17 8 32 5 32 -3 0 0 8 5 18 6 11 12 30 15 43 19 86
31 125 40 131 6 4 8 8 4 8 -4 0 2 30 13 68 25 87 32 113 33 135 0 9 5 17 10
17 5 0 6 3 3 6 -3 4 -2 15 3 25 6 10 11 29 12 43 1 15 7 26 12 26 5 0 7 3 4 6
-4 3 3 36 14 72 11 37 21 74 22 82 2 8 9 35 16 60 15 50 17 56 24 85 3 11 19
70 36 130 30 106 39 139 43 160 2 6 6 16 10 23 5 6 6 12 3 12 -3 0 1 18 9 40
8 22 14 42 15 45 0 3 0 6 1 8 0 1 2 9 4 17 2 8 11 42 20 75 9 33 18 67 20 75
2 8 4 16 5 18 2 1 4 7 5 12 1 6 4 13 5 18 1 4 3 12 4 17 1 6 8 30 15 55 7 25
15 52 17 60 4 16 13 51 39 145 10 33 19 67 21 75 15 64 78 289 85 305 5 11 11
31 13 45 3 14 9 40 15 58 5 18 10 36 11 40 3 20 13 58 19 67 6 11 10 28 14 60
1 11 5 22 9 25 3 3 9 19 12 35 13 66 19 90 26 100 4 6 6 18 5 28 -2 9 1 17 6
17 5 0 8 3 7 8 -1 4 2 19 6 33 4 14 9 34 11 45 2 10 4 19 5 19 1 0 3 8 6 18 2
9 6 25 8 35 3 9 5 17 6 17 1 0 3 11 6 25 2 14 7 32 11 40 3 8 7 20 8 25 2 6
13 46 25 90 12 44 23 87 26 95 2 8 13 49 24 90 12 41 23 82 25 90 2 8 8 27 14
43 6 15 8 27 5 27 -2 0 0 8 5 19 6 10 13 31 16 47 2 16 19 76 35 134 17 58 32
112 34 120 1 8 5 22 8 30 10 24 39 133 42 155 2 11 4 20 5 20 2 0 4 7 6 15 1
8 9 35 16 60 7 25 13 48 15 53 1 4 2 8 4 10 1 1 3 9 5 17 1 8 8 35 16 60 7 25
12 51 10 58 -1 6 2 12 6 12 7 0 11 18 16 73 1 9 4 17 8 17 4 0 10 17 15 38 8
40 10 48 14 60 2 4 4 12 5 17 1 6 8 30 15 55 15 50 17 57 24 85 3 11 23 85 46
165 23 80 42 152 42 160 0 8 5 21 11 28 5 6 6 12 3 12 -4 0 -1 10 6 23 7 12
11 26 10 31 -2 4 2 23 8 41 6 19 13 46 16 61 3 16 9 33 15 40 5 6 6 14 3 17
-3 3 -2 12 2 19 10 16 16 36 18 66 0 12 4 22 8 22 5 0 20 63 20 87 0 5 3 13 8
18 7 9 22 66 21 80 0 2 6 20 15 40 8 19 14 37 14 40 -2 17 14 75 20 75 5 0 6
9 3 20 -3 11 0 20 6 20 7 0 10 10 7 25 -3 14 -1 25 3 25 4 0 8 6 9 13 0 6 8
39 17 72 9 33 18 67 20 75 2 8 8 27 14 43 6 15 9 27 7 27 -3 0 4 23 14 50 11
30 14 47 7 43 -9 -5 -9 -3 -1 8 9 12 50 140 58 182 2 7 8 32 15 57 7 25 15 56
18 69 2 13 8 31 12 40 5 9 9 19 10 24 1 4 1 8 2 10 1 3 7 29 12 52 14 59 20
81 26 90 3 6 6 17 7 25 0 8 8 41 18 74 10 32 20 66 21 75 2 9 4 16 5 16 1 0 3
7 5 15 2 8 11 42 20 75 9 33 18 68 20 78 2 9 7 22 10 28 4 5 8 20 10 32 6 37
10 52 18 65 5 6 6 12 2 12 -3 0 2 17 10 37 9 20 13 43 11 50 -3 7 -2 13 3 13
5 0 11 12 14 28 10 54 18 84 32 125 8 22 12 44 9 49 -3 4 -1 8 5 8 5 0 8 9 6
20 -2 11 1 20 7 20 6 0 9 3 5 6 -3 3 1 23 8 45 8 21 12 39 9 39 -2 0 2 16 10
35 8 19 12 35 9 35 -3 0 0 7 7 15 7 8 10 15 7 15 -3 0 2 21 10 48 15 49 21 71
29 111 3 13 10 33 15 43 6 11 8 22 6 25 -3 2 1 20 9 39 8 19 11 34 8 34 -4 0
-2 6 4 13 6 7 13 26 16 42 2 17 5 30 6 30 1 0 3 7 5 15 2 8 8 29 13 47 6 17 8
34 4 37 -3 3 -1 6 4 6 5 0 11 12 12 26 1 15 7 33 13 40 6 8 9 14 6 14 -5 0 26
127 40 160 3 8 7 22 8 30 2 12 19 77 40 150 15 52 26 97 27 108 1 6 5 12 9 12
4 0 6 8 4 18 -1 9 0 22 4 27 3 6 6 15 7 20 2 6 21 75 43 154 22 80 38 148 35
153 -3 4 0 8 5 8 6 0 11 8 11 18 0 11 9 44 19 75 11 32 18 57 15 57 -2 0 2 15
9 33 8 17 15 35 15 40 1 4 3 9 3 12 1 3 2 13 3 23 1 9 5 23 9 30 5 6 5 17 2
22 -3 6 -1 10 6 10 7 0 10 3 6 6 -3 3 1 23 8 45 8 22 14 41 15 44 0 3 0 6 1 8
2 7 11 44 13 57 2 8 6 22 9 30 4 8 21 67 38 130 17 63 32 120 34 125 1 6 6 25
10 43 4 18 12 35 16 38 5 3 7 9 4 14 -3 5 1 28 9 52 8 24 18 59 21 78 3 19 9
37 13 40 4 3 8 14 9 25 1 11 15 68 32 128 17 59 31 114 31 122 0 8 3 15 8 15
4 0 8 10 9 23 2 23 10 60 13 65 2 1 4 7 5 12 1 6 3 11 5 13 1 1 3 9 5 17 13
53 18 72 77 285 11 39 21 77 23 85 2 8 15 53 28 100 13 47 28 99 32 115 5 17
9 32 10 35 1 3 8 25 15 50 7 25 14 52 15 60 1 8 4 22 7 30 5 12 29 99 34 120
0 3 3 12 7 20 3 8 13 44 22 80 22 86 21 83 28 100 6 17 20 75 17 75 -1 0 4 14
10 30 11 29 16 45 26 91 2 12 13 51 23 85 11 35 22 75 25 89 7 44 11 55 18 60
4 3 9 22 12 43 2 20 7 41 11 47 3 5 8 18 10 28 2 10 10 42 19 70 8 29 12 52 9
52 -3 0 0 7 7 15 6 8 9 19 5 25 -3 5 -2 10 4 10 5 0 8 9 6 20 -2 11 1 20 7 20
6 0 8 3 5 6 -3 4 -2 14 2 23 5 9 11 30 15 46 7 42 37 148 44 160 3 5 7 16 7
25 1 8 12 51 24 95 13 44 24 87 26 95 2 8 11 38 19 65 9 28 16 59 16 70 0 20
-7 20 -553 20 -304 0 -561 -1 -570 -3z"/>
<path d="M8700 16270 l-115 -5 0 -1737 1 -1738 -25 23 c-14 12 -32 29 -41 37
-43 44 -240 170 -240 154 0 -3 -10 1 -22 8 -13 6 -30 13 -38 14 -8 2 -23 7
-35 12 -24 12 -106 34 -138 37 -12 1 -22 3 -22 5 0 3 -30 7 -115 15 -102 11
-1050 12 -1050 2 0 -5 -5 -5 -12 -1 -7 4 -30 6 -53 5 -49 -4 -88 -8 -95 -11
-3 -1 -17 -2 -32 -2 -16 -1 -28 -5 -28 -10 0 -5 -4 -7 -8 -4 -5 3 -33 -2 -63
-10 -30 -8 -61 -17 -69 -19 -8 -2 -17 -4 -20 -5 -3 -1 -8 -2 -12 -1 -5 0 -8
-3 -8 -8 0 -5 -15 -12 -34 -15 -19 -4 -36 -10 -38 -14 -4 -9 -90 -50 -101 -48
-5 0 -13 -7 -18 -16 -6 -10 -17 -18 -24 -18 -8 0 -15 -4 -15 -8 0 -5 -8 -13
-19 -18 -55 -26 -240 -203 -287 -273 -15 -23 -31 -41 -36 -41 -5 0 -6 -4 -3
-10 3 -5 2 -10 -2 -10 -5 0 -13 -8 -18 -19 -6 -10 -23 -43 -40 -72 -99 -179
-138 -347 -139 -591 0 -78 -4 -124 -10 -121 -5 4 -6 1 0 -8 12 -19 12 -959 0
-952 -5 4 -6 1 0 -8 12 -19 13 -959 0 -952 -5 4 -6 1 0 -8 12 -19 12 -959 0
-952 -5 4 -6 1 0 -8 12 -19 13 -959 0 -952 -5 4 -6 1 0 -8 12 -19 12 -959 0
-952 -5 4 -6 1 0 -8 5 -8 10 -248 11 -534 2 -449 5 -600 13 -600 1 0 3 -9 5
-20 13 -89 51 -209 98 -305 18 -36 35 -67 38 -70 3 -3 12 -16 19 -29 7 -14 17
-30 21 -35 5 -6 28 -36 51 -66 58 -75 170 -185 248 -243 36 -26 70 -51 75 -55
6 -4 46 -26 90 -47 44 -22 82 -42 85 -45 6 -6 27 -11 52 -13 10 -1 18 -4 18
-8 0 -6 47 -21 65 -20 2 0 19 -5 37 -10 18 -5 58 -12 88 -15 30 -3 56 -10 58
-15 2 -4 14 -4 27 1 12 5 25 6 29 3 8 -8 2981 -7 2995 1 6 4 8 13 4 19 -12 19
-11 527 2 527 6 0 6 3 -1 8 -14 9 -14 304 1 314 7 5 6 8 -1 8 -16 0 -16 80 -1
80 8 0 9 3 1 8 -14 10 -14 694 0 704 8 5 8 8 0 8 -14 0 -14 240 1 240 7 0 7 3
-1 8 -14 10 -14 534 0 544 8 5 8 8 0 8 -14 0 -14 302 1 312 7 5 6 8 -1 8 -16
0 -16 80 -1 80 8 0 9 3 1 8 -14 10 -14 694 0 704 8 5 8 8 0 8 -14 0 -14 240 1
240 7 0 7 3 -1 8 -14 10 -14 534 0 544 8 5 8 8 0 8 -14 0 -14 302 1 312 7 5 6
8 -1 8 -16 0 -16 80 -1 80 8 0 9 3 1 8 -14 10 -14 694 0 704 8 5 8 8 0 8 -14
0 -14 240 1 240 7 0 7 3 -1 8 -14 10 -14 534 0 544 8 5 8 8 0 8 -14 0 -14 302
1 312 7 5 6 8 -1 8 -16 0 -16 80 -1 80 8 0 9 3 1 8 -14 10 -14 694 0 704 8 5
8 8 0 8 -14 0 -14 240 1 240 7 0 7 3 -1 8 -14 10 -14 534 0 544 8 5 8 8 0 8
-14 0 -14 302 1 312 7 5 6 8 -1 8 -16 0 -16 80 -1 80 8 0 9 3 1 8 -14 10 -14
694 0 704 8 5 8 8 0 8 -14 0 -14 240 1 240 7 0 7 3 -1 8 -14 10 -14 534 0 544
8 5 8 8 0 8 -14 0 -14 302 1 312 7 5 6 8 -1 8 -16 0 -16 80 -1 80 8 0 9 3 1 8
-14 10 -14 694 0 704 8 5 7 8 -1 8 -8 0 -11 24 -9 81 2 60 -1 82 -10 86 -18 7
-939 9 -1084 3z m-116 -4240 c2 -8 3 -181 2 -385 -1 -212 2 -375 7 -382 5 -7
6 -13 1 -13 -11 0 -11 -1890 0 -1908 4 -6 4 -12 -1 -12 -4 0 -8 -779 -8 -1731
1 -1012 -3 -1733 -8 -1736 -7 -4 -1614 -8 -1672 -4 -8 1 -10 946 -9 3089 0
1698 2 3089 3 3092 0 3 379 5 841 5 745 1 841 -1 844 -15z"/>
<path d="M3807 12403 c-3 -4 -127 -7 -276 -7 -174 1 -271 -2 -271 -9 0 -5 -8
-17 -18 -26 -10 -9 -51 -54 -92 -101 -40 -47 -76 -87 -79 -90 -3 -3 -33 -36
-66 -75 -33 -38 -72 -83 -87 -100 -71 -78 -98 -111 -98 -118 0 -5 -4 -5 -10
-2 -5 3 -10 2 -10 -2 0 -9 -53 -73 -111 -135 -20 -21 -35 -38 -32 -38 2 0 -13
-18 -34 -40 -21 -21 -56 -60 -78 -86 -22 -25 -49 -56 -60 -68 -11 -13 -42 -48
-70 -80 -27 -31 -63 -71 -78 -89 -16 -18 -52 -58 -80 -91 -29 -32 -61 -68 -72
-80 -11 -12 -45 -50 -75 -85 -30 -35 -66 -76 -80 -91 -14 -15 -50 -56 -80 -91
-30 -35 -64 -73 -75 -85 -66 -74 -85 -96 -135 -153 -30 -35 -71 -81 -91 -101
-19 -21 -55 -62 -80 -91 -24 -29 -53 -63 -64 -75 -114 -126 -152 -170 -165
-190 -8 -13 -21 -24 -29 -24 -8 0 -11 -3 -8 -7 4 -3 1 -11 -7 -17 -7 -6 -51
-54 -96 -106 -75 -86 -162 -186 -215 -244 -11 -12 -45 -51 -75 -85 -30 -35
-68 -79 -85 -97 -16 -18 -52 -59 -80 -90 -27 -32 -59 -67 -70 -80 -11 -12 -58
-65 -105 -119 -47 -54 -101 -115 -120 -136 -67 -74 -64 -68 -43 -92 114 -132
217 -249 241 -276 13 -14 47 -53 75 -85 29 -33 72 -83 96 -110 24 -28 49 -56
55 -63 6 -7 25 -28 41 -46 17 -19 55 -62 85 -97 30 -36 67 -77 82 -93 15 -16
42 -47 60 -69 18 -23 47 -55 63 -73 17 -17 55 -60 85 -95 30 -35 62 -71 70
-80 8 -10 38 -43 65 -75 28 -32 64 -72 80 -90 17 -18 44 -50 62 -71 18 -21 45
-53 60 -70 15 -17 55 -62 88 -99 33 -38 71 -82 85 -97 14 -15 30 -34 36 -41 6
-7 31 -35 55 -63 52 -59 150 -170 176 -200 58 -67 132 -151 158 -180 17 -18
48 -54 70 -79 22 -26 51 -59 65 -74 14 -16 41 -47 60 -70 19 -23 53 -61 75
-84 22 -24 58 -65 80 -91 22 -27 55 -64 72 -82 18 -19 31 -34 28 -34 -3 0 8
-12 23 -27 15 -16 57 -62 92 -103 36 -41 70 -80 75 -86 16 -18 112 -127 132
-150 30 -35 137 -156 153 -174 8 -8 37 -41 64 -73 27 -31 55 -57 63 -57 8 0
11 -5 7 -11 -4 -8 0 -8 15 0 11 7 21 8 21 2 0 -5 14 -6 34 -1 19 4 40 4 47 -1
7 -4 21 -3 31 2 12 7 18 6 18 -1 0 -7 6 -8 19 0 13 6 22 7 26 0 3 -5 15 -6 29
0 12 4 29 4 36 0 8 -5 22 -4 32 1 12 7 18 6 18 -1 0 -7 6 -8 19 0 13 6 22 7
26 0 3 -5 15 -6 29 0 12 4 29 4 36 0 8 -5 22 -4 32 1 12 7 18 6 18 -1 0 -7 6
-8 19 0 13 7 22 7 26 0 4 -6 13 -7 24 -1 10 6 23 6 31 1 8 -5 19 -6 25 -2 13
9 37 9 53 -1 6 -5 12 -4 12 2 0 7 8 7 25 1 15 -6 26 -6 30 0 4 7 13 6 26 0 10
-6 19 -7 19 -2 0 4 15 7 33 5 17 -2 43 -5 57 -6 14 -1 35 1 48 5 12 4 22 3 22
-2 0 -6 10 -6 26 0 14 6 23 6 20 2 -5 -9 52 -7 61 2 3 3 14 1 24 -4 12 -7 20
-7 24 0 4 6 13 7 23 1 11 -6 24 -6 35 0 11 7 17 7 17 0 0 -7 8 -7 23 -2 13 5
30 5 37 1 8 -5 19 -6 25 -2 13 9 37 9 53 -1 6 -5 12 -4 12 2 0 7 8 7 25 1 14
-5 25 -6 25 -2 0 4 9 8 20 8 11 0 20 -3 20 -7 0 -4 15 -3 34 1 22 5 39 3 45
-3 8 -8 11 -8 11 1 0 6 7 9 15 6 24 -10 18 5 -19 45 -98 102 -124 131 -121
131 2 0 -11 15 -28 33 -36 37 -97 105 -202 221 -38 43 -83 93 -100 111 -16 18
-57 62 -90 99 -33 37 -73 82 -89 99 -15 17 -60 67 -100 111 -39 44 -87 96
-106 117 -19 21 -55 61 -80 89 -25 28 -61 68 -80 89 -19 21 -64 70 -100 110
-36 40 -76 85 -90 100 -94 104 -178 197 -193 215 -10 11 -54 59 -97 106 -43
47 -88 97 -100 110 -24 28 -131 147 -174 193 -45 50 -163 180 -183 203 -23 28
-157 175 -203 225 -19 20 -60 65 -90 100 -30 34 -68 77 -85 94 -16 18 -60 65
-96 106 -37 41 -77 86 -90 100 -13 14 -55 61 -94 104 -38 43 -82 91 -97 107
-16 16 -28 30 -28 32 0 2 -26 31 -57 64 -32 34 -71 76 -87 94 -16 18 -38 43
-49 55 l-20 23 26 24 c15 14 27 27 27 30 0 3 21 27 48 54 26 28 64 70 85 93
38 44 116 130 192 212 89 97 195 213 215 237 36 42 142 157 203 222 31 33 57
62 57 64 0 2 24 28 53 59 28 30 70 76 92 101 22 25 61 68 88 96 26 27 47 51
47 54 0 2 25 29 55 59 30 30 53 55 50 55 -2 0 15 20 38 44 23 24 71 76 107
116 36 39 76 84 90 99 14 15 54 60 90 100 36 40 83 92 105 116 40 43 156 170
230 253 22 25 52 58 68 74 15 16 27 34 27 40 0 6 3 9 6 5 4 -3 27 18 51 48 25
30 49 55 54 55 5 0 9 4 9 9 0 5 17 26 38 48 20 21 66 72 102 112 36 40 86 95
113 122 26 27 47 51 47 54 0 2 21 27 48 54 26 27 70 75 99 107 28 33 71 80 95
105 23 26 66 72 93 103 28 32 70 79 95 105 25 27 63 68 86 93 l40 45 -378 -1
c-208 -1 -378 3 -378 7 0 5 -5 5 -11 1 -17 -10 -212 -11 -226 -1 -6 4 -13 4
-16 0z"/>
<path d="M15888 12405 c-3 -6 -56 -9 -117 -9 l-111 1 23 -26 c25 -30 83 -94
142 -157 22 -23 69 -75 105 -115 36 -40 88 -98 117 -129 28 -30 67 -73 86 -95
19 -22 54 -60 76 -84 23 -24 41 -48 41 -53 0 -4 7 -8 15 -8 8 0 15 -4 15 -9 0
-5 24 -35 53 -66 74 -81 93 -102 172 -190 39 -43 86 -95 105 -115 19 -21 67
-72 105 -115 84 -94 120 -133 285 -314 92 -101 107 -118 190 -211 30 -34 71
-78 90 -99 19 -21 69 -75 110 -121 41 -46 91 -100 110 -121 19 -21 64 -70 100
-110 36 -39 76 -84 90 -99 14 -15 54 -60 90 -100 36 -40 72 -80 81 -89 14 -14
156 -171 249 -275 19 -22 56 -61 81 -88 26 -26 45 -48 44 -48 -2 0 11 -15 28
-33 34 -35 113 -122 212 -232 33 -37 81 -90 107 -118 l46 -50 -26 -28 c-23
-24 -102 -110 -167 -183 -11 -12 -55 -60 -97 -107 -42 -46 -86 -95 -98 -109
-12 -14 -54 -61 -93 -104 -82 -91 -92 -101 -167 -185 -30 -34 -73 -81 -95
-105 -22 -23 -68 -74 -102 -112 -34 -38 -81 -90 -105 -116 -46 -50 -162 -178
-190 -210 -45 -53 -138 -155 -180 -200 -27 -27 -48 -51 -48 -53 0 -2 -20 -24
-44 -49 -24 -25 -68 -74 -97 -108 -30 -34 -68 -76 -85 -94 -17 -19 -60 -66
-95 -105 -35 -39 -80 -89 -99 -109 -19 -21 -53 -58 -75 -84 -22 -25 -56 -63
-75 -84 -39 -42 -164 -180 -207 -228 -15 -17 -53 -59 -83 -92 -30 -33 -82 -90
-115 -127 -74 -82 -90 -100 -190 -210 -44 -48 -88 -97 -98 -109 -10 -12 -37
-41 -60 -66 -23 -26 -73 -81 -112 -125 -38 -43 -81 -90 -95 -105 -14 -15 -36
-40 -50 -55 l-25 -28 27 5 c15 3 32 1 39 -3 7 -4 21 -3 31 2 12 7 18 6 18 -1
0 -7 6 -8 19 0 13 6 22 7 26 0 3 -5 15 -6 29 0 12 4 29 4 36 0 8 -5 22 -4 32
1 12 7 18 6 18 -1 0 -7 6 -8 19 0 12 6 22 6 25 1 7 -10 31 -9 42 2 4 3 15 2
25 -4 11 -5 19 -6 19 -1 0 4 15 7 33 5 17 -2 43 -5 57 -6 14 -1 35 1 48 5 12
4 22 3 22 -2 0 -6 10 -6 26 0 14 6 23 6 20 2 -5 -9 52 -7 61 2 3 3 14 1 24 -4
10 -6 20 -6 23 -2 6 10 36 9 54 -2 6 -4 12 -3 12 3 0 7 8 7 25 1 15 -6 26 -6
30 0 4 7 13 6 26 0 10 -6 19 -7 19 -2 0 4 15 7 33 5 17 -2 43 -5 57 -6 14 -1
35 1 48 5 12 4 22 3 22 -2 0 -6 10 -6 26 0 14 6 23 6 20 2 -5 -9 52 -7 61 2 3
3 14 1 24 -4 10 -6 20 -6 23 -2 6 10 36 9 54 -2 6 -4 12 -3 12 3 0 7 8 7 25 1
15 -6 26 -6 30 0 4 7 13 6 26 0 10 -6 19 -7 19 -2 0 4 15 7 33 5 32 -4 46 -4
70 -2 6 1 17 0 22 -1 44 -11 60 0 150 105 33 39 64 75 70 81 5 6 33 37 60 69
28 32 60 68 73 81 12 13 22 28 22 34 0 6 5 8 10 5 6 -3 10 -3 10 2 0 4 13 22
28 39 15 18 36 42 47 55 12 13 43 49 69 79 27 30 76 86 110 124 34 38 66 74
71 80 6 6 35 40 65 75 30 36 64 74 75 86 69 74 105 115 100 115 -3 0 17 23 45
50 28 28 48 50 45 50 -4 0 12 19 34 43 22 23 49 53 61 67 40 47 125 143 150
170 14 16 36 41 50 57 128 147 160 183 191 218 35 38 54 60 96 111 19 23 133
151 171 192 22 25 92 105 132 152 50 59 117 134 148 166 17 19 32 37 32 39 0
3 17 22 38 44 20 21 46 50 57 64 19 23 97 113 155 177 14 15 48 53 75 85 28
32 61 70 75 86 14 15 45 51 70 80 25 29 57 65 73 81 15 16 45 51 66 78 21 27
41 46 45 43 3 -4 6 -1 6 5 0 7 8 20 18 30 9 10 42 47 72 82 30 34 61 68 67 75
10 11 7 19 -15 43 -15 16 -54 60 -87 97 -33 37 -65 73 -70 79 -6 6 -42 47 -80
91 -38 44 -74 85 -80 91 -5 6 -35 39 -65 74 -30 35 -67 77 -82 92 -16 16 -28
31 -28 33 0 2 -18 22 -40 45 -21 22 -37 40 -35 40 2 0 -9 12 -23 28 -15 15
-56 60 -92 101 -70 80 -71 81 -145 166 -27 31 -59 67 -70 79 -11 12 -39 45
-63 72 -78 89 -167 188 -189 212 -13 12 -23 25 -23 28 0 3 -17 22 -37 43 -21
21 -56 59 -77 85 -37 44 -57 67 -127 143 -16 17 -29 35 -29 40 0 5 -11 16 -25
23 -14 7 -23 15 -21 18 2 2 -3 12 -12 21 -10 10 -44 48 -77 86 -33 38 -74 84
-92 104 -18 20 -42 47 -53 61 -12 13 -42 48 -68 76 -26 29 -69 78 -97 110 -27
31 -63 72 -80 90 -16 18 -44 50 -62 71 -17 21 -48 56 -68 78 -20 22 -56 62
-78 89 -23 27 -53 61 -67 76 -14 14 -56 62 -94 106 -39 43 -78 88 -88 99 -10
11 -30 34 -46 51 -37 43 -133 151 -157 178 -11 13 -45 51 -76 87 -31 35 -67
76 -80 90 -13 14 -34 38 -45 53 -12 15 -28 28 -35 29 -8 2 -20 6 -26 10 -7 5
-13 5 -13 0 0 -10 -201 -10 -216 0 -6 3 -14 4 -17 0 -10 -9 -387 -9 -387 0 0
5 -5 5 -11 1 -16 -9 -220 -11 -226 -1 -2 4 -9 4 -15 1 -17 -11 -388 -10 -391
1 -2 6 -5 6 -9 0z"/>
</g>
</svg>
