<?xml version="1.0" standalone="no"?>
<!DOCTYPE svg PUBLIC "-//W3C//DTD SVG 1.1//EN" "http://www.w3.org/Graphics/SVG/1.1/DTD/svg11.dtd" >
<svg xmlns="http://www.w3.org/2000/svg" xmlns:xlink="http://www.w3.org/1999/xlink" version="1.1">
<metadata></metadata>
<defs>
<font id="fairviewregular" horiz-adv-x="500" >
<font-face units-per-em="1000" ascent="750" descent="-250" />
<missing-glyph horiz-adv-x="165" />
<glyph unicode="fi" horiz-adv-x="390" d="M348 0h-72v432h-132v-432h-71v432h-59v62h59v118q0 29 21 50t50 21h132q29 0 50 -21t21 -50v-44h-71v55h-132v-129h204v-494z" />
<glyph unicode="fl" horiz-adv-x="390" d="M348 0h-72v432h-132v-432h-71v432h-59v62h59v118q0 29 21 50t50 21h82q29 0 50 -21v21h72v-683zM276 494v129h-132v-129h132z" />
<glyph unicode="&#xd;" horiz-adv-x="165" />
<glyph unicode=" "  horiz-adv-x="165" />
<glyph unicode="&#x09;" horiz-adv-x="165" />
<glyph unicode="&#xa0;" horiz-adv-x="165" />
<glyph unicode="!" horiz-adv-x="175" d="M127 0h-79v101h79v-101zM117 180h-60l-6 478h73z" />
<glyph unicode="&#x22;" horiz-adv-x="264" d="M100 458h-66v200h66v-200zM230 458h-66v200h66v-200z" />
<glyph unicode="#" horiz-adv-x="393" d="M247 0h-56l24 148h-81l-24 -148h-55l24 148h-61v53h70l26 157h-63v53h71l25 149h55l-25 -149h81l25 149h55l-25 -149h62v-53h-70l-26 -157h63v-53h-71zM224 201l26 157h-81l-26 -157h81z" />
<glyph unicode="$" horiz-adv-x="297" d="M179 -91h-57v85h-19q-29 0 -50 21t-21 50v93h73v-103h86v135l-145 252q-6 10 -9.5 22t-4.5 18v7v105q0 29 21 50t50 21h19v74h57v-74h14q30 0 50.5 -21t20.5 -50v-93h-73v103h-86v-122l146 -252q6 -11 9.5 -22.5t3.5 -17.5v-6v-119q0 -29 -20.5 -50t-50.5 -21h-14v-85z " />
<glyph unicode="%" horiz-adv-x="548" d="M159 347h-53q-30 0 -51 21t-21 50v175q0 30 21 51t51 21h53q30 0 50.5 -21t20.5 -51v-175q0 -29 -20.5 -50t-50.5 -21zM169 399v213h-73v-213h73zM184 -10h-61l241 679h61zM443 -6h-53q-30 0 -51 21t-21 50v175q0 30 21 51t51 21h53q30 0 50.5 -21t20.5 -51v-175 q0 -29 -20.5 -50t-50.5 -21zM453 46v213h-73v-213h73z" />
<glyph unicode="&#x26;" horiz-adv-x="346" d="M336 0h-64l-31 61l-3 -8q-22 -59 -76 -59h-58q-29 0 -49.5 20.5t-20.5 49.5v182q0 22 14 47l44 77l-22 49q-14 34 -14 47v129q0 29 20.5 49.5t49.5 20.5h86q29 0 49.5 -20.5t20.5 -49.5v-109h-67v119h-89v-151l111 -241l35 85h58l-59 -158zM173 54l31 76l-80 171l-22 -41 v-206h71z" />
<glyph unicode="'" horiz-adv-x="134" d="M100 458h-66v200h66v-200z" />
<glyph unicode="(" horiz-adv-x="238" d="M232 -117h-73q-111 202 -111 440q0 241 111 440h73q-115 -191 -115 -440t115 -440z" />
<glyph unicode=")" horiz-adv-x="238" d="M79 -117h-73q115 191 115 440t-115 440h73q111 -199 111 -440q0 -238 -111 -440z" />
<glyph unicode="*" horiz-adv-x="314" d="M262 442l-55 -41l-49 83l-49 -83l-56 41l62 70l-93 22l21 66l86 -38l-7 96h70l-11 -94l89 37l22 -67l-93 -20z" />
<glyph unicode="+" horiz-adv-x="358" d="M211 97h-64v127h-117v64h117v127h64v-127h117v-64h-117v-127z" />
<glyph unicode="," horiz-adv-x="163" d="M86 -94h-65l40 195h73z" />
<glyph unicode="-" horiz-adv-x="218" d="M188 254h-158v64h158v-64z" />
<glyph unicode="." horiz-adv-x="163" d="M121 0h-79v101h79v-101z" />
<glyph unicode="/" horiz-adv-x="292" d="M58 -117h-67l242 880h68z" />
<glyph unicode="0" horiz-adv-x="315" d="M206 -6h-98q-29 0 -49.5 20.5t-20.5 49.5v531q0 29 20.5 49.5t49.5 20.5h98q29 0 50 -20.5t21 -49.5v-531q0 -29 -21 -49.5t-50 -20.5zM204 55v549h-93v-549h93z" />
<glyph unicode="1" horiz-adv-x="211" d="M163 0h-73v586l-65 -32l-29 54l94 51h73v-659z" />
<glyph unicode="2" horiz-adv-x="296" d="M256 0h-224v124q0 23 13 46l146 251v184h-86v-115h-73v105q0 29 20.5 49.5t49.5 20.5h92q29 0 49.5 -20.5t20.5 -49.5v-167q0 -22 -14 -47l-145 -251v-69h151v-61z" />
<glyph unicode="3" horiz-adv-x="318" d="M212 0h-106q-29 0 -49.5 20.5t-20.5 49.5v113h73v-122h100v247h-104v70h98v226h-98v-114h-73v105q0 29 20.5 49.5t49.5 20.5h104q29 0 49.5 -20.5t20.5 -49.5v-203q0 -15 -8.5 -26.5t-16.5 -16t-14 -6.5q45 -15 45 -49v-224q0 -28 -21 -49t-49 -21z" />
<glyph unicode="4" horiz-adv-x="327" d="M285 0h-73v287h-103q-33 0 -53 21.5t-20 53.5v297h71v-311h105v311h73v-659z" />
<glyph unicode="5" horiz-adv-x="304" d="M200 -6h-94q-28 0 -49 21t-21 49v117h73v-126h88v251h-88q-32 0 -50.5 19t-20.5 37l-2 19v278h222v-61h-151v-231h93q29 0 49.5 -21t20.5 -50v-232q0 -29 -20.5 -49.5t-49.5 -20.5z" />
<glyph unicode="6" horiz-adv-x="321" d="M217 -6h-109q-29 0 -49.5 20.5t-20.5 49.5v531q0 29 20.5 49.5t49.5 20.5h109q29 0 49.5 -20.5t20.5 -49.5v-105h-73v114h-103v-233h106q29 0 49.5 -20.5t20.5 -49.5v-237q0 -28 -20.5 -49t-49.5 -21zM216 55v255h-105v-255h105z" />
<glyph unicode="7" horiz-adv-x="254" d="M123 0h-69l101 597h-140v62h227z" />
<glyph unicode="8" horiz-adv-x="321" d="M214 -6h-108q-29 0 -49.5 20.5t-20.5 49.5v206q0 3 0.5 7t3 15.5t7.5 20.5t16 18t26 12q-24 5 -37 23.5t-14 33.5l-2 16v179q0 29 20.5 49.5t49.5 20.5h102q29 0 50 -20.5t21 -49.5v-179q0 -7 -1.5 -17t-14 -30t-35.5 -26q25 -4 39.5 -22.5t16.5 -34.5l1 -16v-206 q0 -29 -21 -49.5t-50 -20.5zM212 55v259h-103v-259h103zM208 372v232h-101v-232h101z" />
<glyph unicode="9" horiz-adv-x="321" d="M213 -6h-109q-29 0 -49.5 20.5t-20.5 49.5v117h73v-126h103v232h-106q-29 0 -49.5 20.5t-20.5 49.5v238q0 29 20.5 49.5t49.5 20.5h109q29 0 49.5 -20.5t20.5 -49.5v-531q0 -28 -20.5 -49t-49.5 -21zM210 348v256h-105v-256h105z" />
<glyph unicode=":" horiz-adv-x="175" d="M127 0h-79v101h79v-101zM127 389h-79v101h79v-101z" />
<glyph unicode=";" horiz-adv-x="175" d="M129 389h-79v101h79v-101zM81 -94h-65l40 195h73z" />
<glyph unicode="&#x3c;" horiz-adv-x="304" d="M288 61h-92l-172 196l172 195h92l-177 -195z" />
<glyph unicode="=" horiz-adv-x="378" d="M338 124h-298v64h298v-64zM338 324h-298v64h298v-64z" />
<glyph unicode="&#x3e;" horiz-adv-x="304" d="M108 61h-92l177 196l-177 195h92l172 -195z" />
<glyph unicode="?" horiz-adv-x="290" d="M173 180h-63l-5 96q-1 26 13 46l69 99v182h-91v-103h-70v93q0 31 19.5 51t53.5 20h86q36 0 54.5 -21.5t18.5 -49.5v-165q0 -26 -14 -47l-67 -99zM182 0h-79v101h79v-101z" />
<glyph unicode="@" horiz-adv-x="508" d="M418 -37h-305q-28 0 -47.5 19.5t-19.5 47.5v523q0 28 19.5 47.5t47.5 19.5h282q28 0 47.5 -19.5t19.5 -47.5v-422q0 -25 -12.5 -41.5t-36.5 -16.5h-29q-40 0 -56 38q-14 -38 -55 -38h-60q-25 0 -42 17t-17 41v320q0 25 17 42t42 17h35q42 0 55 -37l12 37h37v-385h55v449 h-306v-565h317v-46zM289 125v333h-74v-333h74z" />
<glyph unicode="A" horiz-adv-x="327" d="M287 0h-74v265h-100v-265h-73v588q0 29 21 50t50 21h105q29 0 50 -21t21 -50v-588zM213 326v272h-100v-272h100z" />
<glyph unicode="B" horiz-adv-x="326" d="M218 0h-176v659h170q29 0 50 -21t21 -50v-195q0 -15 -8.5 -26.5t-16.5 -16t-14 -6.5q45 -15 45 -49v-224q0 -29 -21 -50t-50 -21zM216 61v253h-101v-253h101zM210 374v224h-95v-224h95z" />
<glyph unicode="C" horiz-adv-x="315" d="M217 -6h-108q-29 0 -50 21t-21 50v529q0 29 21 50t50 21h108q29 0 49.5 -21t20.5 -50v-104h-73v114h-103v-549h103v127h73v-117q0 -29 -20.5 -50t-49.5 -21z" />
<glyph unicode="D" horiz-adv-x="323" d="M214 0h-172v659h172q29 0 50 -21t21 -50v-517q0 -29 -21 -50t-50 -21zM212 61v537h-97v-537h97z" />
<glyph unicode="E" horiz-adv-x="269" d="M249 0h-207v659h207v-61h-134v-237h112v-62h-112v-238h134v-61z" />
<glyph unicode="F" horiz-adv-x="265" d="M115 0h-73v659h208v-61h-135v-268h113v-62h-113v-268z" />
<glyph unicode="G" horiz-adv-x="325" d="M221 -6h-112q-29 0 -50 21t-21 50v529q0 29 21 50t50 21h108q29 0 49.5 -21t20.5 -50v-104h-73v114h-103v-549h112v212h-51v62h119v-264q0 -29 -20.5 -50t-49.5 -21z" />
<glyph unicode="H" horiz-adv-x="342" d="M300 0h-73v305h-112v-305h-73v659h73v-293h112v293h73v-659z" />
<glyph unicode="I" horiz-adv-x="157" d="M115 0h-73v659h73v-659z" />
<glyph unicode="J" horiz-adv-x="307" d="M196 0h-96q-29 0 -49.5 21t-20.5 50v199h67v-209h97v537h-81v61h154v-588q0 -29 -21 -50t-50 -21z" />
<glyph unicode="K" horiz-adv-x="328" d="M301 0h-72l-22 296h-92v-296h-73v659h73v-302h23l102 302h72l-103 -302h2q33 0 49 -17.5t19 -57.5z" />
<glyph unicode="L" horiz-adv-x="250" d="M232 0h-190v659h73v-598h117v-61z" />
<glyph unicode="M" horiz-adv-x="507" d="M467 0h-73v597h-103v-597h-73v597h-103v-597h-73v659h73v-37q13 37 68 37h23q45 0 63 -37q14 37 63 37h64q29 0 50 -21t21 -50v-588z" />
<glyph unicode="N" horiz-adv-x="338" d="M298 0h-75v597h-108v-597h-73v659h73v-37q15 37 58 37h54q29 0 50 -21t21 -50v-588z" />
<glyph unicode="O" horiz-adv-x="326" d="M217 -6h-108q-29 0 -50 21t-21 50v529q0 29 21 50t50 21h108q29 0 50 -21t21 -50v-529q0 -29 -21 -50t-50 -21zM215 55v549h-103v-549h103z" />
<glyph unicode="P" horiz-adv-x="313" d="M115 0h-73v659h165q29 0 50 -21t21 -50v-307q0 -29 -21 -50t-50 -21h-92v-210zM205 274v323h-90v-323h90z" />
<glyph unicode="Q" horiz-adv-x="330" d="M313 -5l-51 -42l-36 42q-3 -1 -9 -1h-108q-29 0 -50 21t-21 50v529q0 29 21 50t50 21h108q29 0 50 -21t21 -50v-529q0 -15 -7 -31zM215 55v549h-103v-549h103z" />
<glyph unicode="R" horiz-adv-x="318" d="M298 0h-76l-49 265h-58v-265h-73v659h170q29 0 50 -21t21 -50v-251q0 -44 -39 -64zM210 323v274h-95v-274h95z" />
<glyph unicode="S" horiz-adv-x="297" d="M193 -6h-90q-29 0 -50 21t-21 50v93h73v-103h86v135l-145 252q-6 10 -9.5 22t-4.5 18v7v105q0 29 21 50t50 21h90q30 0 50.5 -21t20.5 -50v-93h-73v103h-86v-122l146 -252q6 -11 9.5 -22.5t3.5 -17.5v-6v-119q0 -29 -20.5 -50t-50.5 -21z" />
<glyph unicode="T" horiz-adv-x="262" d="M168 0h-74v597h-79v62h232v-62h-79v-597z" />
<glyph unicode="U" horiz-adv-x="329" d="M218 0h-108q-29 0 -49.5 21t-20.5 50v588h73v-598h103v598h73v-588q0 -29 -21 -50t-50 -21z" />
<glyph unicode="V" horiz-adv-x="314" d="M205 0h-94l-95 659h73l68 -554l67 554h74z" />
<glyph unicode="W" horiz-adv-x="471" d="M361 0h-76q-19 0 -32 15.5t-17 31.5q-14 -47 -52 -47h-73q-29 0 -50 21t-21 50v588h75v-597h85v597h72v-597h85v597h74v-588q0 -29 -20.5 -50t-49.5 -21z" />
<glyph unicode="X" horiz-adv-x="293" d="M283 0h-70l-68 236l-69 -236h-70l104 338l-98 321h69l69 -235l69 235h70l-104 -339z" />
<glyph unicode="Y" horiz-adv-x="321" d="M210 0h-102q-29 0 -50 21t-21 50v112h73v-122h97v220h-99q-29 0 -50 20.5t-21 49.5v308h73v-317h97v317h74v-588q0 -29 -21 -50t-50 -21z" />
<glyph unicode="Z" horiz-adv-x="259" d="M235 0h-227l153 597h-130v62h220l-155 -598h139v-61z" />
<glyph unicode="[" horiz-adv-x="232" d="M208 -117h-75q-35 0 -54 22t-19 53v730q0 31 19 53t54 22h75v-61h-81v-758h81v-61z" />
<glyph unicode="\" horiz-adv-x="292" d="M59 763l242 -880h-67l-243 880h68z" />
<glyph unicode="]" horiz-adv-x="232" d="M99 -117h-75v61h81v758h-81v61h75q35 0 54 -22t19 -53v-730q0 -31 -19 -53t-54 -22z" />
<glyph unicode="^" horiz-adv-x="330" d="M306 421h-71l-70 157l-70 -157h-71l118 238h46z" />
<glyph unicode="_" horiz-adv-x="203" d="M207 -76h-211v46h211v-46z" />
<glyph unicode="`" horiz-adv-x="254" d="M193 555h-65l-68 98h77z" />
<glyph unicode="a" horiz-adv-x="318" d="M280 0h-174q-29 0 -50 21t-21 50v140q0 29 21 50t50 21h46q38 0 56 -25v174h-102v-87h-71v79q0 29 21 50t50 21h103q29 0 50 -21t21 -50v-423zM208 62v158h-101v-158h101z" />
<glyph unicode="b" horiz-adv-x="323" d="M215 0h-173v683h71v-222q19 33 61 33h41q30 0 51 -21t21 -50v-352q0 -29 -21 -50t-51 -21zM215 62v369h-102v-369h102z" />
<glyph unicode="c" horiz-adv-x="313" d="M210 0h-102q-30 0 -51 21t-21 50v352q0 29 21 50t51 21h102q30 0 50.5 -21t20.5 -50v-89h-71v97h-102v-369h102v93h71v-84q0 -29 -20.5 -50t-50.5 -21z" />
<glyph unicode="d" horiz-adv-x="323" d="M281 0h-174q-29 0 -50 21t-21 50v352q0 29 21 50t50 21h52q33 0 50 -19v208h72v-683zM209 62v369h-101v-369h101z" />
<glyph unicode="e" horiz-adv-x="315" d="M210 0h-103q-29 0 -50 21t-21 50v352q0 29 21 50t50 21h103q29 0 50 -21t21 -50v-148q0 -30 -21 -51t-50 -21h-103v-141h102v72h72v-63q0 -29 -21 -50t-50 -21zM209 266v165h-102v-165h102z" />
<glyph unicode="f" horiz-adv-x="233" d="M140 0h-71v432h-59v62h59v118q0 29 21 50t50 21h89v-62h-89v-127h83v-62h-83v-432z" />
<glyph unicode="g" horiz-adv-x="323" d="M209 -149h-102q-30 0 -50.5 20.5t-20.5 50.5v39h71v-48h102v132q-19 -32 -61 -32h-41q-30 0 -50.5 21t-20.5 50v339q0 29 20.5 50t50.5 21h174v-572q0 -30 -21 -50.5t-51 -20.5zM209 76v355h-102v-355h102z" />
<glyph unicode="h" horiz-adv-x="327" d="M287 0h-71v431h-102v-431h-72v683h72v-222q17 33 60 33h42q29 0 50 -21t21 -50v-423z" />
<glyph unicode="i" horiz-adv-x="156" d="M114 0h-72v494h72v-494zM119 561h-82v86h82v-86z" />
<glyph unicode="j" horiz-adv-x="164" d="M51 -149h-69v62h69v581h71v-572q0 -30 -21 -50.5t-50 -20.5zM125 561h-82v86h82v-86z" />
<glyph unicode="k" horiz-adv-x="311" d="M289 0h-71l-22 230h-83v-230h-71v683h71v-393h25l86 204h71l-88 -205q53 -6 60 -75z" />
<glyph unicode="l" horiz-adv-x="156" d="M114 0h-72v683h72v-683z" />
<glyph unicode="m" horiz-adv-x="494" d="M454 0h-71v431h-99v-431h-72v431h-99v-431h-71v494h71v-38q13 38 69 38h18q45 0 64 -38q14 38 63 38h56q29 0 50 -21t21 -50v-423z" />
<glyph unicode="n" horiz-adv-x="332" d="M292 0h-72v431h-107v-431h-71v494h71v-33q19 33 61 33h47q29 0 50 -21t21 -50v-423z" />
<glyph unicode="o" horiz-adv-x="317" d="M210 0h-102q-30 0 -51 21t-21 50v351q0 30 21 51t51 21h102q30 0 50.5 -21t20.5 -51v-351q0 -29 -20.5 -50t-50.5 -21zM210 62v369h-102v-369h102z" />
<glyph unicode="p" horiz-adv-x="323" d="M114 -149h-72v643h174q29 0 50 -21t21 -51v-351q0 -29 -21 -50t-50 -21h-42q-43 0 -60 32v-181zM216 62v369h-102v-369h102z" />
<glyph unicode="q" horiz-adv-x="323" d="M281 -149h-72v181q-17 -32 -60 -32h-42q-29 0 -50 21t-21 50v351q0 30 21 51t50 21h174v-643zM209 62v369h-102v-369h102z" />
<glyph unicode="r" horiz-adv-x="233" d="M114 0h-72v494h72v-38q18 38 65 38h44v-63h-109v-431z" />
<glyph unicode="s" horiz-adv-x="294" d="M191 0h-87q-30 0 -51 21t-21 50v64h72v-73h87v93l-140 144q-17 19 -17 46v77q0 30 21 51t51 21h85q29 0 50 -21t21 -51v-63h-71v72h-85v-93l141 -144q15 -16 15 -39v-84q0 -29 -21 -50t-50 -21z" />
<glyph unicode="t" horiz-adv-x="232" d="M145 0h-72v432h-63v62h63v110h72v-110h77v-62h-77v-432z" />
<glyph unicode="u" horiz-adv-x="332" d="M290 0h-63l-5 39q-17 -39 -67 -39h-44q-29 0 -50 21t-21 50v423h72v-432h106v432h72v-494z" />
<glyph unicode="v" horiz-adv-x="300" d="M193 0h-83l-101 494h72l70 -404l67 404h73z" />
<glyph unicode="w" horiz-adv-x="468" d="M357 0h-73q-20 0 -34 16.5t-16 30.5q-5 -16 -18 -31.5t-34 -15.5h-71q-29 0 -50 21t-21 50v423h73v-432h85v432h72v-432h87v432h71v-423q0 -29 -21 -50t-50 -21z" />
<glyph unicode="x" horiz-adv-x="288" d="M282 0h-70l-67 169l-71 -169h-71l107 255l-94 239h70l60 -153l65 153h70l-100 -239z" />
<glyph unicode="y" horiz-adv-x="323" d="M210 -149h-98q-30 0 -51 21t-21 51v48h72v-57h97v131h-97q-30 0 -51 21t-21 50v378h73v-387h96v387h72v-571q0 -30 -20.5 -51t-50.5 -21z" />
<glyph unicode="z" horiz-adv-x="259" d="M238 0h-228l144 431h-124v63h219l-149 -433h138v-61z" />
<glyph unicode="{" horiz-adv-x="258" d="M234 -117h-75q-35 0 -54 22t-19 53v332h-66v66h66v332q0 31 19 53t54 22h75v-61h-81v-310q0 -52 -42 -69q42 -18 42 -69v-310h81v-61z" />
<glyph unicode="|" horiz-adv-x="199" d="M133 -117h-67v880h67v-880z" />
<glyph unicode="}" horiz-adv-x="258" d="M99 -117h-75v61h81v310q0 51 42 69q-42 17 -42 69v310h-81v61h75q35 0 54 -22t19 -53v-332h66v-66h-66v-332q0 -31 -19 -53t-54 -22z" />
<glyph unicode="~" horiz-adv-x="371" d="M281 344h55q0 -127 -75 -127q-31 0 -73 29.5t-64 29.5q-15 0 -23 -9.5t-9 -18.5t-1 -28h-56q0 130 85 130q36 0 76 -30t56 -30q29 0 29 54z" />
<glyph unicode="&#xa1;" horiz-adv-x="175" d="M127 389h-79v101h79v-101zM124 -168h-73l6 478h60z" />
<glyph unicode="&#xa2;" horiz-adv-x="313" d="M186 -2h-57v102h-21q-30 0 -51 21t-21 50v302q0 29 21 50t51 21h21v91h57v-91h24q30 0 50.5 -21t20.5 -50v-89h-68v97h-108v-319h108v93h68v-84q0 -29 -20.5 -50t-50.5 -21h-24v-102z" />
<glyph unicode="&#xa3;" horiz-adv-x="267" d="M249 0h-222v61h50v280h-53v62h53v185q0 29 21 50t50 21h89v-62h-89v-194h93v-62h-93v-280h101v-61z" />
<glyph unicode="&#xa5;" horiz-adv-x="324" d="M276 73h-79v-73h-70v73h-79v54h79v58h-79v54h79v42h-14q-29 0 -50 20.5t-21 49.5v308h69v-317h102v317h69v-308q0 -29 -21 -49.5t-50 -20.5h-14v-42h79v-54h-79v-58h79v-54z" />
<glyph unicode="&#xa6;" horiz-adv-x="199" d="M133 -117h-67v426h67v-426zM133 392h-67v371h67v-371z" />
<glyph unicode="&#xa7;" horiz-adv-x="315" d="M185 -31h-84q-29 0 -49 19.5t-20 48.5v62h69v-71h84v90l-135 139q-17 17 -17 44v97q0 27 17 44l43 45l-17 17q-14 14 -14 38v81q0 28 20 48t48 20h84q29 0 49 -19.5t20 -48.5v-62h-69v71h-84v-90l135 -139q17 -17 17 -44v-97q0 -27 -17 -44l-43 -45l17 -17q14 -14 14 -38 v-81q0 -28 -20 -48t-48 -20zM212 255v111l-74 74l-35 -35v-111l73 -75z" />
<glyph unicode="&#xa8;" horiz-adv-x="318" d="M131 555h-63v81h63v-81zM243 555h-63v81h63v-81z" />
<glyph unicode="&#xa9;" horiz-adv-x="525" d="M410 -34h-295q-28 0 -47.5 19.5t-19.5 47.5v583q0 28 19.5 47.5t47.5 19.5h295q28 0 47.5 -19.5t19.5 -47.5v-583q0 -28 -19.5 -47.5t-47.5 -19.5zM418 16v617h-311v-617h311zM307 76h-80q-25 0 -42 17t-17 41v380q0 25 17 42t42 17h80q25 0 42 -17t17 -42v-110h-67v113 h-66v-385h66v113h67v-111q0 -24 -17 -41t-42 -17z" />
<glyph unicode="&#xaa;" horiz-adv-x="285" d="M249 391h-146q-29 0 -50 21t-21 50v46q0 29 21 50t50 21h18q45 0 63 -25v96h-83v-44h-64v29q0 29 21 50t50 21h70q29 0 50 -21t21 -50v-244zM184 446v74h-87v-74h87z" />
<glyph unicode="&#xab;" horiz-adv-x="375" d="M196 89h-78l-96 166l96 166h78l-97 -166zM353 89h-78l-96 166l96 166h78l-97 -166z" />
<glyph unicode="&#xac;" />
<glyph unicode="&#xad;" horiz-adv-x="358" d="M328 224h-298v64h298v-64z" />
<glyph unicode="&#xae;" horiz-adv-x="525" d="M377 77h-65l-37 199h-44v-199h-63v496h144q22 0 37.5 -16t15.5 -38v-188q0 -32 -29 -49zM303 328v190h-72v-190h72zM410 -34h-295q-28 0 -47.5 19.5t-19.5 47.5v583q0 28 19.5 47.5t47.5 19.5h295q28 0 47.5 -19.5t19.5 -47.5v-583q0 -28 -19.5 -47.5t-47.5 -19.5z M418 16v617h-311v-617h311z" />
<glyph unicode="&#xaf;" />
<glyph unicode="&#xb0;" horiz-adv-x="266" d="M163 417h-59q-30 0 -51 21t-21 50v135q0 30 21 51t51 21h59q30 0 50.5 -21t20.5 -51v-135q0 -29 -20.5 -50t-50.5 -21zM177 469v173h-87v-173h87z" />
<glyph unicode="&#xb1;" horiz-adv-x="388" d="M343 20h-298v64h298v-64zM343 224h-117v-107h-64v107h-117v64h117v107h64v-107h117v-64z" />
<glyph unicode="&#xb2;" horiz-adv-x="271" d="M224 391h-184v82q0 21 14 30l115 81v68h-66v-61h-63v65q0 24 14 37t36 13h92q22 0 36 -13t14 -37v-69q0 -26 -27 -46l-97 -70v-25h116v-55z" />
<glyph unicode="&#xb3;" horiz-adv-x="273" d="M182 391h-92q-22 0 -36 13t-14 37v50h63v-46h66v78h-65v51h65v78h-66v-42h-63v46q0 24 14 37t36 13h92q22 0 36 -13t14 -37v-56q0 -37 -31 -47q31 -10 31 -47v-65q0 -24 -14 -37t-36 -13z" />
<glyph unicode="&#xb4;" horiz-adv-x="245" d="M114 555h-65l56 98h77z" />
<glyph unicode="&#xb5;" horiz-adv-x="334" d="M292 0h-63l-5 39q-17 -39 -67 -39h-14q-15 0 -29 6v-155h-72v643h72v-432h106v432h72v-494z" />
<glyph unicode="&#xb6;" horiz-adv-x="368" d="M326 -31h-65v655h-45v-655h-65v363h-42q-29 0 -50 21t-21 50v217q0 29 21 50t50 21h217v-722z" />
<glyph unicode="&#xb7;" horiz-adv-x="179" d="M129 200h-79v101h79v-101z" />
<glyph unicode="&#xb8;" horiz-adv-x="235" d="M119 -104h-77l58 101h65z" />
<glyph unicode="&#xb9;" horiz-adv-x="220" d="M168 391h-63v252l-54 -25l-27 51l81 37h63v-315z" />
<glyph unicode="&#xba;" horiz-adv-x="287" d="M181 391h-75q-29 0 -50 21t-21 50v173q0 29 21 50t50 21h75q29 0 50 -21t21 -50v-173q0 -29 -21 -50t-50 -21zM188 447v203h-89v-203h89z" />
<glyph unicode="&#xbb;" horiz-adv-x="375" d="M100 89h-78l97 166l-97 166h78l96 -166zM257 89h-78l97 166l-97 166h78l96 -166z" />
<glyph unicode="&#xbc;" horiz-adv-x="597" d="M542 0h-63v125h-79q-22 0 -36 13t-14 37v140h63v-136h66v136h63v-315zM168 344h-63v252l-54 -25l-27 51l81 37h63v-315zM151 0h-66l307 659h67z" />
<glyph unicode="&#xbd;" horiz-adv-x="584" d="M168 344h-63v252l-54 -25l-27 51l81 37h63v-315zM151 0h-66l307 659h67zM532 0h-184v82q0 21 14 30l115 81v68h-66v-61h-63v65q0 24 14 37t36 13h92q22 0 36 -13t14 -37v-69q0 -26 -27 -46l-97 -70v-25h116v-55z" />
<glyph unicode="&#xbe;" horiz-adv-x="636" d="M192 344h-92q-22 0 -36 13t-14 37v50h63v-46h66v78h-65v51h65v78h-66v-42h-63v46q0 24 14 37t36 13h92q22 0 36 -13t14 -37v-56q0 -37 -31 -47q31 -10 31 -47v-65q0 -24 -14 -37t-36 -13zM584 0h-63v125h-79q-22 0 -36 13t-14 37v140h63v-136h66v136h63v-315zM193 0h-66 l307 659h67z" />
<glyph unicode="&#xbf;" horiz-adv-x="292" d="M264 -103v93h-70v-103h-91v182l69 99q14 20 13 46l-5 96h-63l-4 -102l-67 -99q-14 -21 -14 -47v-165q0 -28 18.5 -49.5t54.5 -21.5h86q34 0 53.5 20t19.5 51zM187 389h-79v101h79v-101z" />
<glyph unicode="&#xc0;" horiz-adv-x="327" d="M287 0h-74v265h-100v-265h-73v588q0 29 21 50t50 21h105q29 0 50 -21t21 -50v-588zM213 326v272h-100v-272h100zM205 705h-65l-68 98h77z" />
<glyph unicode="&#xc1;" horiz-adv-x="327" d="M287 0h-74v265h-100v-265h-73v588q0 29 21 50t50 21h105q29 0 50 -21t21 -50v-588zM213 326v272h-100v-272h100zM186 705h-65l56 98h77z" />
<glyph unicode="&#xc2;" horiz-adv-x="327" d="M287 0h-74v265h-100v-265h-73v588q0 29 21 50t50 21h105q29 0 50 -21t21 -50v-588zM213 326v272h-100v-272h100zM264 705h-63l-37 52l-36 -52h-63l68 98h63z" />
<glyph unicode="&#xc3;" horiz-adv-x="327" d="M287 0h-74v265h-100v-265h-73v588q0 29 21 50t50 21h105q29 0 50 -21t21 -50v-588zM213 326v272h-100v-272h100zM230 783h37q0 -84 -51 -84q-19 0 -46 17t-44 17q-10 0 -15 -4.5t-6 -10t-1 -17.5h-37q0 86 57 86q23 0 49 -17.5t38 -17.5q19 0 19 31z" />
<glyph unicode="&#xc4;" horiz-adv-x="327" d="M287 0h-74v265h-100v-265h-73v588q0 29 21 50t50 21h105q29 0 50 -21t21 -50v-588zM213 326v272h-100v-272h100zM140 702h-63v81h63v-81zM252 702h-63v81h63v-81z" />
<glyph unicode="&#xc5;" horiz-adv-x="327" d="M287 0h-74v265h-100v-265h-73v588q0 29 21 50t50 21h105q29 0 50 -21t21 -50v-588zM213 326v272h-100v-272h100zM184 697h-39q-25 0 -40 15t-15 41v19q0 26 15 41t40 15h39q25 0 40 -15t15 -41v-19q0 -26 -15 -41t-40 -15zM191 732v61h-53v-61h53z" />
<glyph unicode="&#xc6;" horiz-adv-x="439" d="M419 0h-206v265h-100v-265h-73v588q0 29 21 50t50 21h308v-61h-133v-237h111v-62h-111v-238h133v-61zM213 326v272h-100v-272h100z" />
<glyph unicode="&#xc7;" horiz-adv-x="315" d="M156 -104h-77l56 98h-26q-29 0 -50 21t-21 50v529q0 29 21 50t50 21h108q29 0 49.5 -21t20.5 -50v-104h-73v114h-103v-549h103v127h73v-117q0 -29 -20.5 -50t-49.5 -21h-17z" />
<glyph unicode="&#xc8;" horiz-adv-x="269" d="M249 0v61h-134v238h112v62h-112v237h134v61h-207v-659h207zM191 705h-65l-68 98h77z" />
<glyph unicode="&#xc9;" horiz-adv-x="269" d="M249 0v61h-134v238h112v62h-112v237h134v61h-207v-659h207zM169 705h-65l56 98h77z" />
<glyph unicode="&#xca;" horiz-adv-x="269" d="M249 0v61h-134v238h112v62h-112v237h134v61h-207v-659h207zM247 705h-63l-37 52l-36 -52h-63l68 98h63z" />
<glyph unicode="&#xcb;" horiz-adv-x="269" d="M249 0v61h-134v238h112v62h-112v237h134v61h-207v-659h207zM121 702h-63v81h63v-81zM233 702h-63v81h63v-81z" />
<glyph unicode="&#xcc;" horiz-adv-x="157" d="M115 0v659h-73v-659h73zM118 705h-65l-68 98h77z" />
<glyph unicode="&#xcd;" horiz-adv-x="157" d="M115 0v659h-73v-659h73zM103 705h-65l56 98h77z" />
<glyph unicode="&#xce;" horiz-adv-x="157" d="M115 0v659h-73v-659h73zM178 705h-63l-37 52l-36 -52h-63l68 98h63z" />
<glyph unicode="&#xcf;" horiz-adv-x="157" d="M115 0v659h-73v-659h73zM54 702h-63v81h63v-81zM166 702h-63v81h63v-81z" />
<glyph unicode="&#xd0;" horiz-adv-x="332" d="M223 0h-172v312h-33v64h33v283h172q29 0 50 -21t21 -50v-517q0 -29 -21 -50t-50 -21zM221 61v537h-97v-222h60v-64h-60v-251h97z" />
<glyph unicode="&#xd1;" horiz-adv-x="338" d="M298 0h-75v597h-108v-597h-73v659h73v-37q15 37 58 37h54q29 0 50 -21t21 -50v-588zM229 783h37q0 -84 -51 -84q-19 0 -46 17t-44 17q-10 0 -15 -4.5t-6 -10t-1 -17.5h-37q0 86 57 86q23 0 49 -17.5t38 -17.5q19 0 19 31z" />
<glyph unicode="&#xd2;" horiz-adv-x="326" d="M217 -6h-108q-29 0 -50 21t-21 50v529q0 29 21 50t50 21h108q29 0 50 -21t21 -50v-529q0 -29 -21 -50t-50 -21zM215 55v549h-103v-549h103zM200 705h-65l-68 98h77z" />
<glyph unicode="&#xd3;" horiz-adv-x="326" d="M217 -6h-108q-29 0 -50 21t-21 50v529q0 29 21 50t50 21h108q29 0 50 -21t21 -50v-529q0 -29 -21 -50t-50 -21zM215 55v549h-103v-549h103zM185 705h-65l56 98h77z" />
<glyph unicode="&#xd4;" horiz-adv-x="326" d="M217 -6h-108q-29 0 -50 21t-21 50v529q0 29 21 50t50 21h108q29 0 50 -21t21 -50v-529q0 -29 -21 -50t-50 -21zM215 55v549h-103v-549h103zM263 705h-63l-37 52l-36 -52h-63l68 98h63z" />
<glyph unicode="&#xd5;" horiz-adv-x="326" d="M217 -6h-108q-29 0 -50 21t-21 50v529q0 29 21 50t50 21h108q29 0 50 -21t21 -50v-529q0 -29 -21 -50t-50 -21zM215 55v549h-103v-549h103zM226 783h37q0 -84 -51 -84q-19 0 -46 17t-44 17q-10 0 -15 -4.5t-6 -10t-1 -17.5h-37q0 86 57 86q23 0 49 -17.5t38 -17.5 q19 0 19 31z" />
<glyph unicode="&#xd6;" horiz-adv-x="326" d="M217 -6h-108q-29 0 -50 21t-21 50v529q0 29 21 50t50 21h108q29 0 50 -21t21 -50v-529q0 -29 -21 -50t-50 -21zM215 55v549h-103v-549h103zM139 702h-63v81h63v-81zM251 702h-63v81h63v-81z" />
<glyph unicode="&#xd7;" horiz-adv-x="367" d="M286 108l-103 102l-102 -102l-46 46l102 102l-102 102l46 46l102 -102l103 102l46 -46l-103 -102l103 -102z" />
<glyph unicode="&#xd8;" horiz-adv-x="326" d="M217 -6h-108q-29 0 -50 21t-21 50v529q0 29 21 50t50 21h108q29 0 50 -21t21 -50v-529q0 -29 -21 -50t-50 -21zM112 281l103 206v117h-103v-323zM215 55v320l-103 -205v-115h103z" />
<glyph unicode="&#xd9;" horiz-adv-x="329" d="M218 0h-108q-29 0 -49.5 21t-20.5 50v588h73v-598h103v598h73v-588q0 -29 -21 -50t-50 -21zM205 705h-65l-68 98h77z" />
<glyph unicode="&#xda;" horiz-adv-x="329" d="M218 0h-108q-29 0 -49.5 21t-20.5 50v588h73v-598h103v598h73v-588q0 -29 -21 -50t-50 -21zM190 705h-65l56 98h77z" />
<glyph unicode="&#xdb;" horiz-adv-x="329" d="M218 0h-108q-29 0 -49.5 21t-20.5 50v588h73v-598h103v598h73v-588q0 -29 -21 -50t-50 -21zM264 705h-63l-37 52l-36 -52h-63l68 98h63z" />
<glyph unicode="&#xdc;" horiz-adv-x="329" d="M218 0h-108q-29 0 -49.5 21t-20.5 50v588h73v-598h103v598h73v-588q0 -29 -21 -50t-50 -21zM140 702h-63v81h63v-81zM252 702h-63v81h63v-81z" />
<glyph unicode="&#xdd;" horiz-adv-x="321" d="M210 0h-102q-29 0 -50 21t-21 50v112h73v-122h97v220h-99q-29 0 -50 20.5t-21 49.5v308h73v-317h97v317h74v-588q0 -29 -21 -50t-50 -21zM179 705h-65l56 98h77z" />
<glyph unicode="&#xde;" horiz-adv-x="313" d="M115 0h-73v659h73v-102h92q29 0 50 -21t21 -50v-307q0 -29 -21 -50t-50 -21h-92v-108zM205 172v323h-90v-323h90z" />
<glyph unicode="&#xdf;" horiz-adv-x="356" d="M247 0h-66v61h68v257h-59v60h53v243h-99v-621h-71v432h-59v62h59v189h170q29 0 50 -21t21 -50v-215q0 -21 -14 -33.5t-25 -15.5q45 -18 45 -49v-224q0 -3 -0.5 -8t-4.5 -18t-10.5 -23t-22 -18t-35.5 -8z" />
<glyph unicode="&#xe0;" horiz-adv-x="318" d="M280 0h-174q-29 0 -50 21t-21 50v140q0 29 21 50t50 21h46q38 0 56 -25v174h-102v-87h-71v79q0 29 21 50t50 21h103q29 0 50 -21t21 -50v-423zM208 62v158h-101v-158h101zM202 555h-65l-68 98h77z" />
<glyph unicode="&#xe1;" horiz-adv-x="318" d="M280 0h-174q-29 0 -50 21t-21 50v140q0 29 21 50t50 21h46q38 0 56 -25v174h-102v-87h-71v79q0 29 21 50t50 21h103q29 0 50 -21t21 -50v-423zM208 62v158h-101v-158h101zM182 555h-65l56 98h77z" />
<glyph unicode="&#xe2;" horiz-adv-x="318" d="M280 0h-174q-29 0 -50 21t-21 50v140q0 29 21 50t50 21h46q38 0 56 -25v174h-102v-87h-71v79q0 29 21 50t50 21h103q29 0 50 -21t21 -50v-423zM208 62v158h-101v-158h101zM258 555h-63l-37 52l-36 -52h-63l68 98h63z" />
<glyph unicode="&#xe3;" horiz-adv-x="318" d="M280 0h-174q-29 0 -50 21t-21 50v140q0 29 21 50t50 21h46q38 0 56 -25v174h-102v-87h-71v79q0 29 21 50t50 21h103q29 0 50 -21t21 -50v-423zM208 62v158h-101v-158h101zM222 634h37q0 -84 -51 -84q-19 0 -46 17t-44 17q-10 0 -15 -4.5t-6 -10t-1 -17.5h-37q0 86 57 86 q23 0 49 -17.5t38 -17.5q19 0 19 31z" />
<glyph unicode="&#xe4;" horiz-adv-x="318" d="M280 0h-174q-29 0 -50 21t-21 50v140q0 29 21 50t50 21h46q38 0 56 -25v174h-102v-87h-71v79q0 29 21 50t50 21h103q29 0 50 -21t21 -50v-423zM208 62v158h-101v-158h101zM135 555h-63v81h63v-81zM247 555h-63v81h63v-81z" />
<glyph unicode="&#xe5;" horiz-adv-x="318" d="M280 0h-174q-29 0 -50 21t-21 50v140q0 29 21 50t50 21h46q38 0 56 -25v174h-102v-87h-71v79q0 29 21 50t50 21h103q29 0 50 -21t21 -50v-423zM208 62v158h-101v-158h101zM178 546h-39q-25 0 -40 15t-15 41v19q0 26 15 41t40 15h39q25 0 40 -15t15 -41v-19q0 -26 -15 -41 t-40 -15zM185 581v61h-53v-61h53z" />
<glyph unicode="&#xe6;" horiz-adv-x="487" d="M382 0h-276q-29 0 -50 21t-21 50v140q0 29 21 50t50 21h46q38 0 56 -25v174h-102v-87h-71v79q0 29 21 50t50 21h79q48 0 65 -44q9 19 26.5 31.5t39.5 12.5h66q29 0 50 -21t21 -50v-148q0 -30 -21 -51t-50 -21h-102v-141h101v72h72v-63q0 -29 -21 -50t-50 -21zM381 266 v165h-102q1 -3 1 -8v-157h101zM208 62v158h-101v-158h101z" />
<glyph unicode="&#xe7;" horiz-adv-x="313" d="M210 0h-102q-30 0 -51 21t-21 50v352q0 29 21 50t51 21h102q30 0 50.5 -21t20.5 -50v-89h-71v97h-102v-369h102v93h71v-84q0 -29 -20.5 -50t-50.5 -21zM148 -104h-77l58 101h65z" />
<glyph unicode="&#xe8;" horiz-adv-x="315" d="M210 0h-103q-29 0 -50 21t-21 50v352q0 29 21 50t50 21h103q29 0 50 -21t21 -50v-148q0 -30 -21 -51t-50 -21h-103v-141h102v72h72v-63q0 -29 -21 -50t-50 -21zM209 266v165h-102v-165h102zM198 555h-65l-68 98h77z" />
<glyph unicode="&#xe9;" horiz-adv-x="315" d="M210 0h-103q-29 0 -50 21t-21 50v352q0 29 21 50t50 21h103q29 0 50 -21t21 -50v-148q0 -30 -21 -51t-50 -21h-103v-141h102v72h72v-63q0 -29 -21 -50t-50 -21zM209 266v165h-102v-165h102zM179 555h-65l56 98h77z" />
<glyph unicode="&#xea;" horiz-adv-x="315" d="M210 0h-103q-29 0 -50 21t-21 50v352q0 29 21 50t50 21h103q29 0 50 -21t21 -50v-148q0 -30 -21 -51t-50 -21h-103v-141h102v72h72v-63q0 -29 -21 -50t-50 -21zM209 266v165h-102v-165h102zM260 555h-63l-37 52l-36 -52h-63l68 98h63z" />
<glyph unicode="&#xeb;" horiz-adv-x="315" d="M210 0h-103q-29 0 -50 21t-21 50v352q0 29 21 50t50 21h103q29 0 50 -21t21 -50v-148q0 -30 -21 -51t-50 -21h-103v-141h102v72h72v-63q0 -29 -21 -50t-50 -21zM209 266v165h-102v-165h102zM137 555h-63v81h63v-81zM249 555h-63v81h63v-81z" />
<glyph unicode="&#xec;" horiz-adv-x="156" d="M114 0h-72v494h72v-494zM125 555h-65l-68 98h77z" />
<glyph unicode="&#xed;" horiz-adv-x="156" d="M114 0h-72v494h72v-494zM100 555h-65l56 98h77z" />
<glyph unicode="&#xee;" horiz-adv-x="156" d="M114 0h-72v494h72v-494zM178 555h-63l-37 52l-36 -52h-63l68 98h63z" />
<glyph unicode="&#xef;" horiz-adv-x="156" d="M114 0h-72v494h72v-494zM54 555h-63v81h63v-81zM166 555h-63v81h63v-81z" />
<glyph unicode="&#xf0;" horiz-adv-x="321" d="M212 0h-102q-30 0 -51 21t-21 50v331q0 30 21 51t51 21h74l-45 97l-68 -26l-16 42l65 25l-32 71h76l21 -47l57 22l16 -42l-55 -21l73 -163q7 -16 7 -30v-331q0 -29 -20.5 -50t-50.5 -21zM212 62v349h-102v-349h102z" />
<glyph unicode="&#xf1;" horiz-adv-x="332" d="M292 0h-72v431h-107v-431h-71v494h71v-33q19 33 61 33h47q29 0 50 -21t21 -50v-423zM231 634h37q0 -84 -51 -84q-19 0 -46 17t-44 17q-10 0 -15 -4.5t-6 -10t-1 -17.5h-37q0 86 57 86q23 0 49 -17.5t38 -17.5q19 0 19 31z" />
<glyph unicode="&#xf2;" horiz-adv-x="317" d="M210 0h-102q-30 0 -51 21t-21 50v351q0 30 21 51t51 21h102q30 0 50.5 -21t20.5 -51v-351q0 -29 -20.5 -50t-50.5 -21zM210 62v369h-102v-369h102zM195 555h-65l-68 98h77z" />
<glyph unicode="&#xf3;" horiz-adv-x="317" d="M210 0h-102q-30 0 -51 21t-21 50v351q0 30 21 51t51 21h102q30 0 50.5 -21t20.5 -51v-351q0 -29 -20.5 -50t-50.5 -21zM210 62v369h-102v-369h102zM179 555h-65l56 98h77z" />
<glyph unicode="&#xf4;" horiz-adv-x="317" d="M210 0h-102q-30 0 -51 21t-21 50v351q0 30 21 51t51 21h102q30 0 50.5 -21t20.5 -51v-351q0 -29 -20.5 -50t-50.5 -21zM210 62v369h-102v-369h102zM258 555h-63l-37 52l-36 -52h-63l68 98h63z" />
<glyph unicode="&#xf5;" horiz-adv-x="317" d="M210 0h-102q-30 0 -51 21t-21 50v351q0 30 21 51t51 21h102q30 0 50.5 -21t20.5 -51v-351q0 -29 -20.5 -50t-50.5 -21zM210 62v369h-102v-369h102zM220 634h37q0 -84 -51 -84q-19 0 -46 17t-44 17q-10 0 -15 -4.5t-6 -10t-1 -17.5h-37q0 86 57 86q23 0 49 -17.5t38 -17.5 q19 0 19 31z" />
<glyph unicode="&#xf6;" horiz-adv-x="317" d="M210 0h-102q-30 0 -51 21t-21 50v351q0 30 21 51t51 21h102q30 0 50.5 -21t20.5 -51v-351q0 -29 -20.5 -50t-50.5 -21zM210 62v369h-102v-369h102zM134 555h-63v81h63v-81zM246 555h-63v81h63v-81z" />
<glyph unicode="&#xf7;" horiz-adv-x="368" d="M333 224h-298v64h298v-64zM216 337h-64v78h64v-78zM216 97h-64v78h64v-78z" />
<glyph unicode="&#xf8;" horiz-adv-x="321" d="M212 0h-102q-30 0 -51 21t-21 50v351q0 30 21 51t51 21h102q30 0 50.5 -21t20.5 -51v-351q0 -29 -20.5 -50t-50.5 -21zM110 194l102 202v35h-102v-237zM212 62v230l-102 -204v-26h102z" />
<glyph unicode="&#xf9;" horiz-adv-x="332" d="M290 0h-63l-5 39q-17 -39 -67 -39h-44q-29 0 -50 21t-21 50v423h72v-432h106v432h72v-494zM206 555h-65l-68 98h77z" />
<glyph unicode="&#xfa;" horiz-adv-x="332" d="M290 0h-63l-5 39q-17 -39 -67 -39h-44q-29 0 -50 21t-21 50v423h72v-432h106v432h72v-494zM190 555h-65l56 98h77z" />
<glyph unicode="&#xfb;" horiz-adv-x="332" d="M290 0h-63l-5 39q-17 -39 -67 -39h-44q-29 0 -50 21t-21 50v423h72v-432h106v432h72v-494zM265 555h-63l-37 52l-36 -52h-63l68 98h63z" />
<glyph unicode="&#xfc;" horiz-adv-x="332" d="M290 0h-63l-5 39q-17 -39 -67 -39h-44q-29 0 -50 21t-21 50v423h72v-432h106v432h72v-494zM141 555h-63v81h63v-81zM253 555h-63v81h63v-81z" />
<glyph unicode="&#xfd;" horiz-adv-x="323" d="M210 -149h-98q-30 0 -51 21t-21 51v48h72v-57h97v131h-97q-30 0 -51 21t-21 50v378h73v-387h96v387h72v-571q0 -30 -20.5 -51t-50.5 -21zM187 555h-65l56 98h77z" />
<glyph unicode="&#xfe;" horiz-adv-x="323" d="M114 -149h-72v832h72v-189h102q29 0 50 -21t21 -51v-351q0 -29 -21 -50t-50 -21h-42q-43 0 -60 32v-181zM216 62v369h-102v-369h102z" />
<glyph unicode="&#xff;" horiz-adv-x="323" d="M210 -149h-98q-30 0 -51 21t-21 51v48h72v-57h97v131h-97q-30 0 -51 21t-21 50v378h73v-387h96v387h72v-571q0 -30 -20.5 -51t-50.5 -21zM137 555h-63v81h63v-81zM249 555h-63v81h63v-81z" />
<glyph unicode="&#x131;" horiz-adv-x="156" d="M114 0h-72v494h72v-494z" />
<glyph unicode="&#x141;" />
<glyph unicode="&#x142;" />
<glyph unicode="&#x152;" horiz-adv-x="444" d="M424 0h-313q-29 0 -50 21t-21 50v517q0 29 21 50t50 21h313v-61h-134v-237h112v-62h-112v-238h134v-61zM217 61v537h-103v-537h103z" />
<glyph unicode="&#x153;" horiz-adv-x="489" d="M384 0h-73q-47 0 -66 43q-8 -19 -25.5 -31t-39.5 -12h-72q-30 0 -51 21t-21 50v351q0 30 21 51t51 21h72q48 0 65 -44q9 19 26.5 31.5t39.5 12.5h73q29 0 50 -21t21 -50v-148q0 -30 -21 -51t-50 -21h-103v-141h102v72h72v-63q0 -29 -21 -50t-50 -21zM210 62v369h-102 v-369h102zM383 266v165h-102v-165h102z" />
<glyph unicode="&#x160;" />
<glyph unicode="&#x161;" />
<glyph unicode="&#x178;" horiz-adv-x="321" d="M210 0h-102q-29 0 -50 21t-21 50v112h73v-122h97v220h-99q-29 0 -50 20.5t-21 49.5v308h73v-317h97v317h74v-588q0 -29 -21 -50t-50 -21zM137 702h-63v81h63v-81zM249 702h-63v81h63v-81z" />
<glyph unicode="&#x17d;" />
<glyph unicode="&#x17e;" />
<glyph unicode="&#x192;" />
<glyph unicode="&#x2c6;" horiz-adv-x="304" d="M250 555h-63l-37 52l-36 -52h-63l68 98h63z" />
<glyph unicode="&#x2c7;" />
<glyph unicode="&#x2d8;" />
<glyph unicode="&#x2d9;" />
<glyph unicode="&#x2da;" horiz-adv-x="279" d="M159 546h-39q-25 0 -40 15t-15 41v19q0 26 15 41t40 15h39q25 0 40 -15t15 -41v-19q0 -26 -15 -41t-40 -15zM166 581v61h-53v-61h53z" />
<glyph unicode="&#x2db;" />
<glyph unicode="&#x2dc;" horiz-adv-x="322" d="M223 634h37q0 -84 -51 -84q-19 0 -46 17t-44 17q-10 0 -15 -4.5t-6 -10t-1 -17.5h-37q0 86 57 86q23 0 49 -17.5t38 -17.5q19 0 19 31z" />
<glyph unicode="&#x2dd;" />
<glyph unicode="&#x3c0;" />
<glyph unicode="&#x2013;" horiz-adv-x="338" d="M308 254h-278v64h278v-64z" />
<glyph unicode="&#x2014;" horiz-adv-x="526" d="M496 254h-466v64h466v-64z" />
<glyph unicode="&#x2018;" horiz-adv-x="153" d="M128 464h-65l-48 195h73z" />
<glyph unicode="&#x2019;" horiz-adv-x="153" d="M90 464h-65l40 195h73z" />
<glyph unicode="&#x201a;" horiz-adv-x="163" d="M86 -94h-65l40 195h73z" />
<glyph unicode="&#x201c;" horiz-adv-x="283" d="M258 464h-65l-48 195h73zM128 464h-65l-48 195h73z" />
<glyph unicode="&#x201d;" horiz-adv-x="283" d="M90 464h-65l40 195h73zM220 464h-65l40 195h73z" />
<glyph unicode="&#x201e;" horiz-adv-x="293" d="M86 -94h-65l40 195h73zM216 -94h-65l40 195h73z" />
<glyph unicode="&#x2020;" horiz-adv-x="324" d="M191 146h-59v375h-102v57h102v124h59v-124h103v-57h-103v-375z" />
<glyph unicode="&#x2021;" horiz-adv-x="336" d="M197 146h-59v124h-102v57h102v194h-102v57h102v124h59v-124h103v-57h-103v-194h103v-57h-103v-124z" />
<glyph unicode="&#x2022;" horiz-adv-x="256" d="M153 185h-50q-28 0 -47.5 19.5t-19.5 47.5v69q0 28 19.5 48t47.5 20h50q28 0 47.5 -19.5t19.5 -48.5v-69q0 -28 -19.5 -47.5t-47.5 -19.5z" />
<glyph unicode="&#x2026;" horiz-adv-x="507" d="M121 0h-79v101h79v-101zM293 0h-79v101h79v-101zM465 0h-79v101h79v-101z" />
<glyph unicode="&#x2030;" horiz-adv-x="753" d="M159 347h-53q-30 0 -51 21t-21 50v175q0 30 21 51t51 21h53q30 0 50.5 -21t20.5 -51v-175q0 -29 -20.5 -50t-50.5 -21zM169 399v213h-73v-213h73zM174 -10h-61l241 679h61zM423 -6h-53q-30 0 -51 21t-21 50v175q0 30 21 51t51 21h53q30 0 50.5 -21t20.5 -51v-175 q0 -29 -20.5 -50t-50.5 -21zM433 46v213h-73v-213h73zM648 -6h-53q-30 0 -51 21t-21 50v175q0 30 21 51t51 21h53q30 0 50.5 -21t20.5 -51v-175q0 -29 -20.5 -50t-50.5 -21zM658 46v213h-73v-213h73z" />
<glyph unicode="&#x2039;" horiz-adv-x="218" d="M196 89h-78l-96 166l96 166h78l-97 -166z" />
<glyph unicode="&#x203a;" horiz-adv-x="218" d="M100 89h-78l97 166l-97 166h78l96 -166z" />
<glyph unicode="&#x2044;" horiz-adv-x="314" d="M36 0h-66l307 659h67z" />
<glyph unicode="&#x20ac;" horiz-adv-x="334" d="M236 -6h-108q-29 0 -50 21t-21 50v173h-39v47h39v89h-39v47h39v173q0 29 21 50t50 21h108q29 0 49.5 -21t20.5 -50v-104h-73v114h-103v-183h97v-47h-97v-89h97v-47h-97v-183h103v127h73v-117q0 -29 -20.5 -50t-49.5 -21z" />
<glyph unicode="&#x2122;" horiz-adv-x="490" d="M458 438h-54v177h-55v-177h-54v177h-54v-177h-53v221h53v-28q10 28 43 28q35 0 49 -28q11 28 49 28h22q23 0 38.5 -16t15.5 -39v-166zM117 438v177h43v44h-140v-44h43v-177h54z" />
<glyph unicode="&#x2126;" />
<glyph unicode="&#x2202;" />
<glyph unicode="&#x2206;" />
<glyph unicode="&#x220f;" />
<glyph unicode="&#x2211;" />
<glyph unicode="&#x2212;" horiz-adv-x="368" d="M333 224h-298v64h298v-64z" />
<glyph unicode="&#x221a;" />
<glyph unicode="&#x221e;" />
<glyph unicode="&#x222b;" />
<glyph unicode="&#x2248;" horiz-adv-x="373" d="M281 264h55q0 -127 -75 -127q-31 0 -73 29.5t-64 29.5q-15 0 -23 -9.5t-9 -18.5t-1 -28h-56q0 130 85 130q36 0 76 -30t56 -30q29 0 29 54zM281 424h55q0 -127 -75 -127q-31 0 -73 29.5t-64 29.5q-15 0 -23 -9.5t-9 -18.5t-1 -28h-56q0 130 85 130q36 0 76 -30t56 -30 q29 0 29 54z" />
<glyph unicode="&#x2260;" />
<glyph unicode="&#x2264;" />
<glyph unicode="&#x2265;" />
<glyph unicode="&#x25ca;" />
<glyph unicode="&#x25fc;" horiz-adv-x="495" d="M0 495h495v-495h-495v495z" />
<glyph unicode="&#xf8ff;" />
<glyph horiz-adv-x="165" />
</font>
</defs>
</svg>
